Amstlevar-Italic-opsz8-wght100-wdth125.ufo
<glyph name="exclam" format="2">
  <advance width="664"/>
  <unicode hex="0021"/>
  <outline>
    <contour>
      <point x="95.0" y="80.0" type="qcurve" smooth="yes"/>
      <point x="95.0" y="120.0"/>
      <point x="154.0" y="183.0"/>
      <point x="201.0" y="183.0" type="qcurve" smooth="yes"/>
      <point x="249.0" y="183.0"/>
      <point x="309.0" y="120.0"/>
      <point x="309.0" y="80.0" type="qcurve" smooth="yes"/>
      <point x="309.0" y="38.0"/>
      <point x="249.0" y="-24.0"/>
      <point x="201.0" y="-24.0" type="qcurve" smooth="yes"/>
      <point x="154.0" y="-24.0"/>
      <point x="95.0" y="38.0"/>
    </contour>
    <contour>
      <point x="360.0" y="1378.0" type="line" smooth="yes"/>
      <point x="365.0" y="1446.0"/>
      <point x="410.0" y="1557.0"/>
      <point x="459.0" y="1557.0" type="qcurve" smooth="yes"/>
      <point x="503.0" y="1557.0"/>
      <point x="540.0" y="1453.0"/>
      <point x="521.0" y="1385.0" type="qcurve" smooth="yes"/>
      <point x="445.0" y="1111.0" type="line"/>
      <point x="373.0" y="803.0" type="line"/>
      <point x="290.0" y="477.0" type="line"/>
      <point x="245.0" y="486.0" type="line"/>
      <point x="289.0" y="797.0" type="line"/>
      <point x="339.0" y="1105.0" type="line"/>
    </contour>
  </outline>
</glyph>
<glyph name="quotedbl" format="2">
  <advance width="933"/>
  <unicode hex="0022"/>
  <outline>
    <contour>
      <point x="219.0" y="944.0" type="line"/>
      <point x="252.0" y="1403.0" type="line" smooth="yes"/>
      <point x="256" y="1462"/>
      <point x="304.0" y="1563.0"/>
      <point x="348.0" y="1562.0" type="qcurve" smooth="yes"/>
      <point x="399" y="1561"/>
      <point x="426" y="1470"/>
      <point x="406.0" y="1403.0" type="qcurve" smooth="yes"/>
      <point x="263.0" y="934.0" type="line"/>
    </contour>
    <contour>
      <point x="639.0" y="944.0" type="line"/>
      <point x="672.0" y="1403.0" type="line" smooth="yes"/>
      <point x="677" y="1471"/>
      <point x="724.0" y="1562.0"/>
      <point x="768.0" y="1562.0" type="qcurve" smooth="yes"/>
      <point x="818" y="1562"/>
      <point x="846" y="1467"/>
      <point x="826.0" y="1403.0" type="qcurve" smooth="yes"/>
      <point x="683.0" y="934.0" type="line"/>
    </contour>
  </outline>
</glyph>
<glyph name="numbersign" format="2">
  <advance width="1600"/>
  <unicode hex="0023"/>
  <outline>
    <contour>
      <point x="-29.0" y="419.0" type="line"/>
      <point x="1.0" y="518.0" type="line"/>
      <point x="1396.0" y="518.0" type="line"/>
      <point x="1366.0" y="419.0" type="line"/>
    </contour>
    <contour>
      <point x="110.0" y="954.0" type="line"/>
      <point x="140.0" y="1052.0" type="line"/>
      <point x="1535.0" y="1052.0" type="line"/>
      <point x="1505.0" y="954.0" type="line"/>
    </contour>
    <contour>
      <point x="85.0" y="-48.0" type="line"/>
      <point x="695.0" y="1542.0" type="line"/>
      <point x="783.0" y="1517.0" type="line"/>
      <point x="174.0" y="-73.0" type="line"/>
    </contour>
    <contour>
      <point x="745.0" y="-48.0" type="line"/>
      <point x="1355.0" y="1542.0" type="line"/>
      <point x="1443.0" y="1517.0" type="line"/>
      <point x="833.0" y="-73.0" type="line"/>
    </contour>
  </outline>
</glyph>
<glyph name="dollar" format="2">
  <advance width="1312"/>
  <unicode hex="0024"/>
  <outline>
    <contour>
      <point x="-151" y="281" type="qcurve"/>
      <point x="-55" y="368" type="line"/>
      <point x="37" y="258"/>
      <point x="350" y="112.0"/>
      <point x="575" y="112.0" type="qcurve" smooth="yes"/>
      <point x="751" y="112"/>
      <point x="1036" y="257"/>
      <point x="1052" y="395" type="qcurve" smooth="yes"/>
      <point x="1068" y="531"/>
      <point x="825" y="661"/>
      <point x="591" y="726" type="qcurve" smooth="yes"/>
      <point x="331" y="798"/>
      <point x="68" y="994"/>
      <point x="90" y="1165" type="qcurve" smooth="yes"/>
      <point x="111" y="1331"/>
      <point x="440" y="1502"/>
      <point x="673" y="1502.0" type="qcurve" smooth="yes"/>
      <point x="906" y="1502.0"/>
      <point x="1189" y="1406"/>
      <point x="1273" y="1348" type="qcurve"/>
      <point x="1216" y="1245" type="line"/>
      <point x="1145" y="1304"/>
      <point x="851" y="1409"/>
      <point x="662" y="1409.0" type="qcurve" smooth="yes"/>
      <point x="471" y="1409.0"/>
      <point x="221" y="1275"/>
      <point x="207" y="1163" type="qcurve" smooth="yes"/>
      <point x="192" y="1047"/>
      <point x="371" y="901"/>
      <point x="634" y="829" type="qcurve" smooth="yes"/>
      <point x="917" y="751"/>
      <point x="1186" y="562"/>
      <point x="1165" y="385" type="qcurve" smooth="yes"/>
      <point x="1145" y="216"/>
      <point x="834" y="10"/>
      <point x="573" y="10" type="qcurve" smooth="yes"/>
      <point x="302" y="10"/>
      <point x="-49" y="163"/>
    </contour>
    <contour>
      <point x="381" y="-130" type="line"/>
      <point x="428" y="72" type="line"/>
      <point x="427" y="72" type="line"/>
      <point x="570" y="795" type="line"/>
      <point x="650" y="765" type="line"/>
      <point x="515" y="72" type="line"/>
      <point x="515" y="72" type="line"/>
      <point x="480" y="-138" type="line"/>
    </contour>
    <contour>
      <point x="732" y="1613" type="line"/>
      <point x="834" y="1610" type="line"/>
      <point x="779" y="1360" type="line"/>
      <point x="777" y="1360" type="line"/>
      <point x="650" y="765" type="line"/>
      <point x="570" y="795" type="line"/>
      <point x="685" y="1360" type="line"/>
      <point x="684" y="1360" type="line"/>
    </contour>
  </outline>
</glyph>
<glyph name="percent" format="2">
  <advance width="2365"/>
  <unicode hex="0025"/>
  <outline>
    <contour>
      <point x="91" y="1068" type="qcurve" smooth="yes"/>
      <point x="126" y="1268"/>
      <point x="419" y="1531"/>
      <point x="610" y="1520" type="qcurve" smooth="yes"/>
      <point x="800" y="1511"/>
      <point x="1001" y="1226"/>
      <point x="965" y="1024" type="qcurve" smooth="yes"/>
      <point x="930" y="826"/>
      <point x="628" y="556"/>
      <point x="437" y="567" type="qcurve" smooth="yes"/>
      <point x="246" y="578"/>
      <point x="55" y="866"/>
    </contour>
    <contour>
      <point x="211" y="1067" type="qcurve" smooth="yes"/>
      <point x="182" y="905"/>
      <point x="314" y="672"/>
      <point x="460" y="665" type="qcurve" smooth="yes"/>
      <point x="609" y="656"/>
      <point x="820" y="865"/>
      <point x="849" y="1029" type="qcurve" smooth="yes"/>
      <point x="877" y="1187"/>
      <point x="723" y="1414"/>
      <point x="591" y="1421" type="qcurve" smooth="yes"/>
      <point x="458" y="1429"/>
      <point x="237" y="1227"/>
    </contour>
    <contour>
      <point x="464" y="11" type="line"/>
      <point x="1689" y="1540" type="line"/>
      <point x="1764" y="1469" type="line"/>
      <point x="539" y="-63" type="line"/>
    </contour>
    <contour>
      <point x="1250" y="509" type="qcurve" smooth="yes"/>
      <point x="1287" y="706"/>
      <point x="1579" y="946"/>
      <point x="1770" y="932" type="qcurve" smooth="yes"/>
      <point x="1961" y="919"/>
      <point x="2160" y="651"/>
      <point x="2122" y="450" type="qcurve" smooth="yes"/>
      <point x="2075" y="213"/>
      <point x="1774" y="-32"/>
      <point x="1584" y="-18" type="qcurve" smooth="yes"/>
      <point x="1392" y="-6"/>
      <point x="1203" y="268"/>
    </contour>
    <contour>
      <point x="1367" y="503" type="qcurve" smooth="yes"/>
      <point x="1329" y="304"/>
      <point x="1461" y="86"/>
      <point x="1605" y="76" type="qcurve" smooth="yes"/>
      <point x="1756" y="65"/>
      <point x="1966" y="254"/>
      <point x="2005" y="454" type="qcurve" smooth="yes"/>
      <point x="2035" y="613"/>
      <point x="1882" y="826"/>
      <point x="1751" y="835" type="qcurve" smooth="yes"/>
      <point x="1617" y="845"/>
      <point x="1395" y="662"/>
    </contour>
  </outline>
</glyph>
<glyph name="ampersand" format="2">
  <advance width="1850"/>
  <unicode hex="0026"/>
  <outline>
    <contour>
      <point x="1277" y="-5" type="line"/>
      <point x="1166" y="175" type="line"/>
      <point x="1055" y="79"/>
      <point x="727" y="-33"/>
      <point x="525" y="-33" type="qcurve" smooth="yes"/>
      <point x="254" y="-33"/>
      <point x="-17" y="206"/>
      <point x="18" y="404" type="qcurve" smooth="yes"/>
      <point x="49" y="579"/>
      <point x="425" y="769"/>
      <point x="729" y="795" type="qcurve"/>
      <point x="531" y="850"/>
      <point x="352" y="1077"/>
      <point x="389" y="1241" type="qcurve" smooth="yes"/>
      <point x="427" y="1410"/>
      <point x="776" y="1569"/>
      <point x="981" y="1561" type="qcurve" smooth="yes"/>
      <point x="1113" y="1556"/>
      <point x="1283" y="1499"/>
      <point x="1310" y="1499" type="qcurve" smooth="yes"/>
      <point x="1331" y="1499"/>
      <point x="1351" y="1514"/>
      <point x="1354" y="1526" type="qcurve"/>
      <point x="1440" y="1526" type="line"/>
      <point x="1334" y="1129" type="line"/>
      <point x="1240" y="1129" type="line"/>
      <point x="1278" y="1396" type="line"/>
      <point x="1238" y="1422"/>
      <point x="1076" y="1468"/>
      <point x="939" y="1468" type="qcurve" smooth="yes"/>
      <point x="767" y="1468"/>
      <point x="535" y="1352"/>
      <point x="505" y="1198" type="qcurve" smooth="yes"/>
      <point x="475" y="1045"/>
      <point x="813" y="804"/>
      <point x="1271" y="795" type="qcurve" smooth="yes"/>
      <point x="1552" y="790"/>
      <point x="1810" y="850"/>
      <point x="1866" y="950" type="qcurve"/>
      <point x="1921" y="920" type="line"/>
      <point x="1911" y="821"/>
      <point x="1740" y="692"/>
      <point x="1620" y="692" type="qcurve" smooth="yes"/>
      <point x="1510" y="692"/>
      <point x="1002" y="723"/>
      <point x="882" y="723" type="qcurve" smooth="yes"/>
      <point x="541" y="723"/>
      <point x="176" y="528"/>
      <point x="148" y="373" type="qcurve" smooth="yes"/>
      <point x="121" y="220"/>
      <point x="353" y="65"/>
      <point x="543" y="65" type="qcurve" smooth="yes"/>
      <point x="764" y="65"/>
      <point x="1134" y="219"/>
      <point x="1196" y="411" type="qcurve" smooth="yes"/>
      <point x="1278" y="758" type="line"/>
      <point x="1385" y="733" type="line"/>
      <point x="1279" y="317"/>
      <point x="1295" y="145"/>
      <point x="1357" y="41" type="qcurve"/>
    </contour>
  </outline>
</glyph>
<glyph name="quotesingle" format="2">
  <advance width="543"/>
  <unicode hex="0027"/>
  <outline>
    <contour>
      <point x="229.0" y="944.0" type="line"/>
      <point x="265.0" y="1413.0" type="line" smooth="yes"/>
      <point x="270" y="1482"/>
      <point x="314.0" y="1562.0"/>
      <point x="358.0" y="1562.0" type="qcurve" smooth="yes"/>
      <point x="409" y="1562"/>
      <point x="429" y="1468"/>
      <point x="413.0" y="1413.0" type="qcurve" smooth="yes"/>
      <point x="273.0" y="934.0" type="line"/>
    </contour>
  </outline>
</glyph>
<glyph name="parenleft" format="2">
  <advance width="768"/>
  <unicode hex="0028"/>
  <outline>
    <contour>
      <point x="71.0" y="567.0" type="qcurve" smooth="yes"/>
      <point x="110.0" y="858.0"/>
      <point x="506.0" y="1393.0"/>
      <point x="730.0" y="1524.0" type="qcurve"/>
      <point x="782.0" y="1452.0" type="line"/>
      <point x="579.0" y="1334.0"/>
      <point x="252" y="848"/>
      <point x="210.0" y="547.0" type="qcurve" smooth="yes"/>
      <point x="168" y="246"/>
      <point x="397.0" y="-228.0"/>
      <point x="594.0" y="-396.0" type="qcurve"/>
      <point x="523.0" y="-469.0" type="line"/>
      <point x="303.0" y="-288.0"/>
      <point x="31.0" y="267.0"/>
    </contour>
  </outline>
</glyph>
<glyph name="parenright" format="2">
  <advance width="768"/>
  <unicode hex="0029"/>
  <outline>
    <contour>
      <point x="602.0" y="488.0" type="qcurve" smooth="yes"/>
      <point x="563.0" y="197.0"/>
      <point x="167.0" y="-338.0"/>
      <point x="-57.0" y="-469.0" type="qcurve"/>
      <point x="-109.0" y="-397.0" type="line"/>
      <point x="94.0" y="-279.0"/>
      <point x="421.0" y="207.0"/>
      <point x="463.0" y="508.0" type="qcurve" smooth="yes"/>
      <point x="505.0" y="809.0"/>
      <point x="276.0" y="1283.0"/>
      <point x="79.0" y="1451.0" type="qcurve"/>
      <point x="150.0" y="1524.0" type="line"/>
      <point x="370.0" y="1343.0"/>
      <point x="642.0" y="788.0"/>
    </contour>
  </outline>
</glyph>
<glyph name="asterisk" format="2">
  <advance width="1087"/>
  <unicode hex="002A"/>
  <outline>
    <contour>
      <point x="399.0" y="666.0" type="qcurve" smooth="yes"/>
      <point x="346.0" y="682.0"/>
      <point x="379.0" y="820.0"/>
      <point x="405.0" y="872.0" type="qcurve" smooth="yes"/>
      <point x="501.0" y="1076.0" type="line"/>
      <point x="499.0" y="1078.0" type="line"/>
      <point x="285.0" y="989.0" type="line" smooth="yes"/>
      <point x="243.0" y="972.0"/>
      <point x="95.0" y="932.0"/>
      <point x="80.0" y="992.0" type="qcurve" smooth="yes"/>
      <point x="65.0" y="1049.0"/>
      <point x="204.0" y="1088.0"/>
      <point x="264.0" y="1092.0" type="qcurve" smooth="yes"/>
      <point x="487.0" y="1109.0" type="line"/>
      <point x="487.0" y="1114.0" type="line"/>
      <point x="286.0" y="1268.0" type="line" smooth="yes"/>
      <point x="243.0" y="1301.0"/>
      <point x="170.0" y="1396.0"/>
      <point x="209.0" y="1434.0" type="qcurve" smooth="yes"/>
      <point x="248.0" y="1471.0"/>
      <point x="337.0" y="1390.0"/>
      <point x="371.0" y="1342.0" type="qcurve" smooth="yes"/>
      <point x="513.0" y="1140.0" type="line"/>
      <point x="519.0" y="1140.0" type="line"/>
      <point x="551.0" y="1389.0" type="line" smooth="yes"/>
      <point x="561.0" y="1451.0"/>
      <point x="602.0" y="1549.0"/>
      <point x="651.0" y="1542.0" type="qcurve" smooth="yes"/>
      <point x="700.0" y="1532.0"/>
      <point x="682.0" y="1423.0"/>
      <point x="656.0" y="1364.0" type="qcurve" smooth="yes"/>
      <point x="550.0" y="1131.0" type="line"/>
      <point x="552.0" y="1127.0" type="line"/>
      <point x="785.0" y="1225.0" type="line" smooth="yes"/>
      <point x="812.0" y="1238.0"/>
      <point x="949.0" y="1276.0"/>
      <point x="965.0" y="1215.0" type="qcurve" smooth="yes"/>
      <point x="979.0" y="1158.0"/>
      <point x="828.0" y="1123.0"/>
      <point x="808.0" y="1122.0" type="qcurve" smooth="yes"/>
      <point x="560.0" y="1096.0" type="line"/>
      <point x="560.0" y="1091.0" type="line"/>
      <point x="728.0" y="964.0" type="line" smooth="yes"/>
      <point x="781.0" y="925.0"/>
      <point x="887.0" y="813.0"/>
      <point x="842.0" y="772.0" type="qcurve" smooth="yes"/>
      <point x="798.0" y="730.0"/>
      <point x="688.0" y="841.0"/>
      <point x="655.0" y="893.0" type="qcurve" smooth="yes"/>
      <point x="534.0" y="1068.0" type="line"/>
      <point x="531.0" y="1068.0" type="line"/>
      <point x="509.0" y="847.0" type="line" smooth="yes"/>
      <point x="504.0" y="786.0"/>
      <point x="458.0" y="649.0"/>
    </contour>
  </outline>
</glyph>
<glyph name="plus" format="2">
  <advance width="1238"/>
  <unicode hex="002B"/>
  <outline>
    <contour>
      <point x="16.0" y="596.0" type="line"/>
      <point x="16.0" y="699.0" type="line"/>
      <point x="1021.0" y="699.0" type="line"/>
      <point x="1021.0" y="596.0" type="line"/>
    </contour>
    <contour>
      <point x="479.0" y="170.0" type="line"/>
      <point x="479.0" y="1124.0" type="line"/>
      <point x="568.0" y="1124.0" type="line"/>
      <point x="568.0" y="170.0" type="line"/>
    </contour>
  </outline>
</glyph>
<glyph name="comma" format="2">
  <advance width="515"/>
  <unicode hex="002C"/>
  <outline>
    <contour>
      <point x="-47.0" y="-181.0" type="line"/>
      <point x="-6.0" y="-154.0"/>
      <point x="92.0" y="-57.0"/>
      <point x="110.0" y="-6.0" type="qcurve"/>
      <point x="59.0" y="-8.0"/>
      <point x="-6" y="52"/>
      <point x="-6" y="95" type="qcurve" smooth="yes"/>
      <point x="-6" y="144"/>
      <point x="56" y="212"/>
      <point x="103" y="212.0" type="qcurve" smooth="yes"/>
      <point x="155" y="212"/>
      <point x="224" y="146"/>
      <point x="224" y="83" type="qcurve" smooth="yes"/>
      <point x="224" y="-2"/>
      <point x="82.0" y="-192.0"/>
      <point x="0.0" y="-244.0" type="qcurve"/>
    </contour>
  </outline>
</glyph>
<glyph name="hyphen" format="2">
  <advance width="1151"/>
  <unicode hex="002D"/>
  <outline>
    <contour>
      <point x="18.0" y="612.0" type="line"/>
      <point x="18.0" y="737.0" type="line"/>
      <point x="474.0" y="733.0" type="line"/>
      <point x="949.0" y="737.0" type="line"/>
      <point x="949.0" y="612.0" type="line"/>
      <point x="474.0" y="616.0" type="line"/>
    </contour>
  </outline>
</glyph>
<glyph name="period" format="2">
  <advance width="515"/>
  <unicode hex="002E"/>
  <outline>
    <contour>
      <point x="2" y="93" type="qcurve" smooth="yes"/>
      <point x="2" y="135"/>
      <point x="64" y="201"/>
      <point x="114" y="201" type="qcurve" smooth="yes"/>
      <point x="164" y="201"/>
      <point x="227" y="135"/>
      <point x="227" y="93" type="qcurve" smooth="yes"/>
      <point x="227" y="48"/>
      <point x="164" y="-18.0"/>
      <point x="114" y="-18.0" type="qcurve" smooth="yes"/>
      <point x="64" y="-18.0"/>
      <point x="2" y="48"/>
    </contour>
  </outline>
</glyph>
<glyph name="slash" format="2">
  <advance width="734"/>
  <unicode hex="002F"/>
  <outline>
    <contour>
      <point x="-169.0" y="-137.0" type="line"/>
      <point x="691.0" y="1557.0" type="line"/>
      <point x="777.0" y="1505.0" type="line"/>
      <point x="-83.0" y="-189.0" type="line"/>
    </contour>
  </outline>
</glyph>
<glyph name="zero" format="2">
  <advance width="1499"/>
  <unicode hex="0030"/>
  <outline>
    <contour>
      <point x="57" y="881" type="qcurve" smooth="yes"/>
      <point x="130" y="1193"/>
      <point x="584" y="1553"/>
      <point x="890" y="1512" type="qcurve" smooth="yes"/>
      <point x="1187" y="1472"/>
      <point x="1429" y="992"/>
      <point x="1353" y="653" type="qcurve" smooth="yes"/>
      <point x="1285" y="347"/>
      <point x="824" y="-50"/>
      <point x="525" y="-11" type="qcurve" smooth="yes"/>
      <point x="215" y="29"/>
      <point x="-27" y="520"/>
    </contour>
    <contour>
      <point x="176" y="851" type="qcurve" smooth="yes"/>
      <point x="111" y="561"/>
      <point x="280" y="138"/>
      <point x="551" y="100" type="qcurve" smooth="yes"/>
      <point x="811" y="65"/>
      <point x="1168" y="390"/>
      <point x="1231" y="676" type="qcurve" smooth="yes"/>
      <point x="1296" y="967"/>
      <point x="1118" y="1361"/>
      <point x="852" y="1400" type="qcurve" smooth="yes"/>
      <point x="603" y="1435"/>
      <point x="239" y="1124"/>
    </contour>
  </outline>
</glyph>
<glyph name="one" format="2">
  <advance width="787"/>
  <unicode hex="0031"/>
  <outline>
    <contour>
      <point x="191" y="7" type="line"/>
      <point x="213" y="69"/>
      <point x="252" y="170"/>
      <point x="273" y="277" type="qcurve" smooth="yes"/>
      <point x="427" y="1054" type="line"/>
      <point x="485" y="1385" type="line"/>
      <point x="67" y="1150" type="line"/>
      <point x="37" y="1244" type="line"/>
      <point x="580" y="1545" type="line"/>
      <point x="639" y="1509" type="line"/>
      <point x="624" y="1459"/>
      <point x="595" y="1347"/>
      <point x="584" y="1295" type="qcurve" smooth="yes"/>
      <point x="466" y="720" type="line"/>
      <point x="366" y="89" type="line"/>
      <point x="247" y="-25" type="line"/>
    </contour>
  </outline>
</glyph>
<glyph name="two" format="2">
  <advance width="1283"/>
  <unicode hex="0032"/>
  <outline>
    <contour>
      <point x="-78" y="17" type="qcurve"/>
      <point x="-127" y="75" type="line"/>
      <point x="30" y="176" type="line" smooth="yes"/>
      <point x="584" y="524"/>
      <point x="1057" y="965"/>
      <point x="1040" y="1154" type="qcurve" smooth="yes"/>
      <point x="1029" y="1274"/>
      <point x="824" y="1407"/>
      <point x="647" y="1407" type="qcurve" smooth="yes"/>
      <point x="490" y="1407"/>
      <point x="218" y="1293"/>
      <point x="141" y="1182" type="qcurve"/>
      <point x="58" y="1235" type="line"/>
      <point x="178" y="1409"/>
      <point x="462" y="1518"/>
      <point x="670" y="1518" type="qcurve" smooth="yes"/>
      <point x="873" y="1518"/>
      <point x="1156" y="1338"/>
      <point x="1174" y="1179" type="qcurve" smooth="yes"/>
      <point x="1201" y="937"/>
      <point x="567" y="383"/>
      <point x="144" y="143" type="qcurve"/>
      <point x="142" y="141" type="line"/>
      <point x="185" y="155"/>
      <point x="306" y="177"/>
      <point x="351" y="177" type="qcurve" smooth="yes"/>
      <point x="482" y="177"/>
      <point x="741" y="154"/>
      <point x="868" y="135" type="qcurve"/>
      <point x="1020" y="326" type="line"/>
      <point x="1106" y="324" type="line"/>
      <point x="966" y="-20" type="line"/>
      <point x="811" y="13"/>
      <point x="427" y="67"/>
      <point x="256" y="66" type="qcurve" smooth="yes"/>
      <point x="156" y="66"/>
      <point x="1" y="42"/>
    </contour>
  </outline>
</glyph>
<glyph name="three" format="2">
  <advance width="1237"/>
  <unicode hex="0033"/>
  <outline>
    <contour>
      <point x="-87" y="241" type="qcurve" smooth="yes"/>
      <point x="-87" y="317"/>
      <point x="-13" y="402"/>
      <point x="20" y="407" type="qcurve"/>
      <point x="71" y="407" type="line"/>
      <point x="54" y="366"/>
      <point x="39" y="293"/>
      <point x="41" y="258" type="qcurve" smooth="yes"/>
      <point x="61" y="171"/>
      <point x="185" y="96"/>
      <point x="369" y="96" type="qcurve" smooth="yes"/>
      <point x="610" y="96"/>
      <point x="951" y="325"/>
      <point x="951" y="494" type="qcurve" smooth="yes"/>
      <point x="951" y="633"/>
      <point x="631" y="779"/>
      <point x="384" y="775" type="qcurve" smooth="yes"/>
      <point x="254" y="773" type="line"/>
      <point x="285" y="873" type="line"/>
      <point x="418" y="873" type="line" smooth="yes"/>
      <point x="654" y="873"/>
      <point x="996" y="1073"/>
      <point x="993" y="1216" type="qcurve" smooth="yes"/>
      <point x="991" y="1336"/>
      <point x="792" y="1414"/>
      <point x="658" y="1414" type="qcurve" smooth="yes"/>
      <point x="498" y="1414"/>
      <point x="246" y="1318"/>
      <point x="160" y="1225" type="qcurve"/>
      <point x="92" y="1308" type="line"/>
      <point x="204" y="1411"/>
      <point x="505" y="1522"/>
      <point x="704" y="1522" type="qcurve" smooth="yes"/>
      <point x="883" y="1522"/>
      <point x="1126" y="1379"/>
      <point x="1126" y="1238" type="qcurve" smooth="yes"/>
      <point x="1126" y="1059"/>
      <point x="849" y="867"/>
      <point x="653" y="842" type="qcurve"/>
      <point x="652" y="835" type="line"/>
      <point x="841" y="819"/>
      <point x="1079" y="633"/>
      <point x="1079" y="465" type="qcurve" smooth="yes"/>
      <point x="1079" y="275"/>
      <point x="669" y="-12"/>
      <point x="358" y="-12" type="qcurve" smooth="yes"/>
      <point x="111" y="-12"/>
      <point x="-87" y="146"/>
    </contour>
  </outline>
</glyph>
<glyph name="four" format="2">
  <advance width="1269"/>
  <unicode hex="0034"/>
  <outline>
    <contour>
      <point x="-81.0" y="466.0" type="line"/>
      <point x="-81.0" y="540.0" type="line"/>
      <point x="997.0" y="1541.0" type="line"/>
      <point x="1082.0" y="1522.0" type="line"/>
      <point x="1112.0" y="1482.0" type="line"/>
      <point x="929.0" y="520.0" type="line"/>
      <point x="923.0" y="489.0" type="line"/>
      <point x="874.0" y="176.0" type="line"/>
      <point x="889.0" y="66.0" type="line"/>
      <point x="759.0" y="-30.0" type="line"/>
      <point x="716.0" y="5.0" type="line"/>
      <point x="820.0" y="502.0" type="line"/>
      <point x="827.0" y="534.0" type="line"/>
      <point x="986.0" y="1396.0" type="line"/>
      <point x="113.0" y="586.0" type="line"/>
      <point x="119.0" y="575.0" type="line"/>
      <point x="870.0" y="571.0" type="line"/>
      <point x="1182.0" y="575.0" type="line"/>
      <point x="1172.0" y="464.0" type="line"/>
      <point x="838.0" y="466.0" type="line"/>
    </contour>
  </outline>
</glyph>
<glyph name="five" format="2">
  <advance width="1300"/>
  <unicode hex="0035"/>
  <outline>
    <contour>
      <point x="-61" y="214" type="qcurve" smooth="yes"/>
      <point x="-66" y="272"/>
      <point x="-28" y="360"/>
      <point x="30" y="385" type="qcurve"/>
      <point x="58" y="385" type="line"/>
      <point x="61" y="316" type="line" smooth="yes"/>
      <point x="67" y="174"/>
      <point x="275" y="88"/>
      <point x="447" y="88" type="qcurve" smooth="yes"/>
      <point x="708" y="88"/>
      <point x="1048" y="365"/>
      <point x="1048" y="586" type="qcurve" smooth="yes"/>
      <point x="1048" y="764"/>
      <point x="688" y="909"/>
      <point x="360" y="833" type="qcurve" smooth="yes"/>
      <point x="150" y="784" type="line"/>
      <point x="100" y="857" type="line"/>
      <point x="262" y="1433" type="line"/>
      <point x="352" y="1500" type="line"/>
      <point x="1204" y="1500" type="line"/>
      <point x="1174" y="1398" type="line"/>
      <point x="404" y="1398" type="line"/>
      <point x="361" y="1387" type="line"/>
      <point x="308" y="1197"/>
      <point x="233" y="930"/>
      <point x="217" y="896" type="qcurve"/>
      <point x="541" y="972" type="line"/>
      <point x="811" y="1019"/>
      <point x="1179" y="842"/>
      <point x="1179" y="613" type="qcurve" smooth="yes"/>
      <point x="1179" y="325"/>
      <point x="721" y="-12"/>
      <point x="437" y="-12" type="qcurve" smooth="yes"/>
      <point x="235" y="-12"/>
      <point x="-50" y="90"/>
    </contour>
  </outline>
</glyph>
<glyph name="six" format="2">
  <advance width="1351"/>
  <unicode hex="0036"/>
  <outline>
    <contour>
      <point x="13" y="483" type="qcurve" smooth="yes"/>
      <point x="23" y="872"/>
      <point x="711" y="1510"/>
      <point x="1233" y="1588" type="qcurve"/>
      <point x="1272" y="1503" type="line"/>
      <point x="786" y="1416"/>
      <point x="143" y="844"/>
      <point x="143" y="459" type="qcurve" smooth="yes"/>
      <point x="143" y="266"/>
      <point x="389" y="90"/>
      <point x="555" y="90" type="qcurve" smooth="yes"/>
      <point x="749" y="90"/>
      <point x="1102" y="364"/>
      <point x="1102" y="554" type="qcurve" smooth="yes"/>
      <point x="1102" y="679"/>
      <point x="932" y="838"/>
      <point x="770" y="829" type="qcurve" smooth="yes"/>
      <point x="662" y="823"/>
      <point x="503" y="762"/>
      <point x="461" y="731" type="qcurve"/>
      <point x="411" y="820" type="line"/>
      <point x="460" y="861"/>
      <point x="673" y="941"/>
      <point x="786" y="948" type="qcurve" smooth="yes"/>
      <point x="964" y="959"/>
      <point x="1228" y="755"/>
      <point x="1228" y="562" type="qcurve" smooth="yes"/>
      <point x="1228" y="335"/>
      <point x="818" y="-20"/>
      <point x="546" y="-20" type="qcurve" smooth="yes"/>
      <point x="341" y="-20"/>
      <point x="6" y="220"/>
    </contour>
  </outline>
</glyph>
<glyph name="seven" format="2">
  <advance width="1352"/>
  <unicode hex="0037"/>
  <outline>
    <contour>
      <point x="126.0" y="1179.0" type="line"/>
      <point x="201.0" y="1500.0" type="line"/>
      <point x="1332.0" y="1500.0" type="line"/>
      <point x="1366.0" y="1397.0" type="line"/>
      <point x="906.0" y="992.0"/>
      <point x="482.0" y="409.0"/>
      <point x="417.0" y="80.0" type="qcurve"/>
      <point x="309.0" y="-26.0" type="line"/>
      <point x="248.0" y="14.0" type="line"/>
      <point x="390.0" y="453.0"/>
      <point x="827.0" y="1040.0"/>
      <point x="1227.0" y="1385.0" type="qcurve"/>
      <point x="1210.0" y="1395.0" type="line"/>
      <point x="314.0" y="1397.0" type="line"/>
      <point x="214.0" y="1179.0" type="line"/>
    </contour>
  </outline>
</glyph>
<glyph name="eight" format="2">
  <advance width="1322"/>
  <unicode hex="0038"/>
  <outline>
    <contour>
      <point x="-49" y="372" type="qcurve" smooth="yes"/>
      <point x="-49" y="540"/>
      <point x="251" y="777"/>
      <point x="571" y="840" type="qcurve"/>
      <point x="666" y="774" type="line"/>
      <point x="393" y="726"/>
      <point x="78" y="542"/>
      <point x="78" y="383" type="qcurve" smooth="yes"/>
      <point x="78" y="266"/>
      <point x="330" y="93"/>
      <point x="539" y="93" type="qcurve" smooth="yes"/>
      <point x="771" y="93"/>
      <point x="1046" y="252"/>
      <point x="1046" y="388" type="qcurve" smooth="yes"/>
      <point x="1046" y="496"/>
      <point x="849" y="645"/>
      <point x="638" y="755" type="qcurve" smooth="yes"/>
      <point x="417" y="870"/>
      <point x="240" y="1027"/>
      <point x="232" y="1150" type="qcurve" smooth="yes"/>
      <point x="224" y="1293"/>
      <point x="488" y="1518"/>
      <point x="774" y="1518" type="qcurve" smooth="yes"/>
      <point x="997" y="1518"/>
      <point x="1229" y="1346"/>
      <point x="1230" y="1192" type="qcurve" smooth="yes"/>
      <point x="1231" y="1022"/>
      <point x="979" y="827"/>
      <point x="741" y="778" type="qcurve"/>
      <point x="647" y="850" type="line"/>
      <point x="918" y="894"/>
      <point x="1126" y="1078"/>
      <point x="1127" y="1190" type="qcurve" smooth="yes"/>
      <point x="1128" y="1289"/>
      <point x="937" y="1412"/>
      <point x="766" y="1412" type="qcurve" smooth="yes"/>
      <point x="584" y="1412"/>
      <point x="352" y="1270"/>
      <point x="357" y="1162" type="qcurve" smooth="yes"/>
      <point x="361" y="1053"/>
      <point x="569" y="912"/>
      <point x="768" y="809" type="qcurve" smooth="yes"/>
      <point x="976" y="701"/>
      <point x="1165" y="529"/>
      <point x="1165" y="399" type="qcurve" smooth="yes"/>
      <point x="1165" y="217"/>
      <point x="808" y="-10"/>
      <point x="514" y="-10" type="qcurve" smooth="yes"/>
      <point x="250" y="-10"/>
      <point x="-49" y="202"/>
    </contour>
  </outline>
</glyph>
<glyph name="nine" format="2">
  <advance width="1313"/>
  <unicode hex="0039"/>
  <outline>
    <contour>
      <point x="5" y="-90" type="qcurve"/>
      <point x="-34" y="-5" type="line"/>
      <point x="452" y="82"/>
      <point x="1095" y="654"/>
      <point x="1095" y="1039" type="qcurve" smooth="yes"/>
      <point x="1095" y="1232"/>
      <point x="849" y="1408"/>
      <point x="683" y="1408" type="qcurve" smooth="yes"/>
      <point x="489" y="1408"/>
      <point x="136" y="1134"/>
      <point x="136" y="944" type="qcurve" smooth="yes"/>
      <point x="136" y="819"/>
      <point x="306" y="660"/>
      <point x="468" y="669" type="qcurve" smooth="yes"/>
      <point x="576" y="675"/>
      <point x="735" y="736"/>
      <point x="777" y="767" type="qcurve"/>
      <point x="827" y="678" type="line"/>
      <point x="778" y="637"/>
      <point x="565" y="557"/>
      <point x="452" y="550" type="qcurve" smooth="yes"/>
      <point x="274" y="539"/>
      <point x="10" y="743"/>
      <point x="10" y="936" type="qcurve" smooth="yes"/>
      <point x="10" y="1163"/>
      <point x="420" y="1518"/>
      <point x="692" y="1518" type="qcurve" smooth="yes"/>
      <point x="897" y="1518"/>
      <point x="1232" y="1278"/>
      <point x="1225" y="1015" type="qcurve" smooth="yes"/>
      <point x="1215" y="626"/>
      <point x="527" y="-12"/>
    </contour>
  </outline>
</glyph>
<glyph name="colon" format="2">
  <advance width="463"/>
  <unicode hex="003A"/>
  <outline>
    <contour>
      <point x="-1.0" y="91.0" type="qcurve" smooth="yes"/>
      <point x="-1.0" y="134.0"/>
      <point x="59.0" y="196.0"/>
      <point x="106.0" y="196.0" type="qcurve" smooth="yes"/>
      <point x="153.0" y="196.0"/>
      <point x="213.0" y="134.0"/>
      <point x="213.0" y="91.0" type="qcurve" smooth="yes"/>
      <point x="213.0" y="50.0"/>
      <point x="153.0" y="-12.0"/>
      <point x="106.0" y="-12.0" type="qcurve" smooth="yes"/>
      <point x="59.0" y="-12.0"/>
      <point x="-1.0" y="50.0"/>
    </contour>
    <contour>
      <point x="130.0" y="924.0" type="qcurve" smooth="yes"/>
      <point x="130.0" y="967.0"/>
      <point x="190.0" y="1029.0"/>
      <point x="237.0" y="1029.0" type="qcurve" smooth="yes"/>
      <point x="284.0" y="1029.0"/>
      <point x="344.0" y="967.0"/>
      <point x="344.0" y="924.0" type="qcurve" smooth="yes"/>
      <point x="344.0" y="883.0"/>
      <point x="284.0" y="821.0"/>
      <point x="237.0" y="821.0" type="qcurve" smooth="yes"/>
      <point x="190.0" y="821.0"/>
      <point x="130.0" y="883.0"/>
    </contour>
  </outline>
</glyph>
<glyph name="semicolon" format="2">
  <advance width="516"/>
  <unicode hex="003B"/>
  <outline>
    <contour>
      <point x="140.0" y="924.0" type="qcurve" smooth="yes"/>
      <point x="140.0" y="967.0"/>
      <point x="200.0" y="1029.0"/>
      <point x="247.0" y="1029.0" type="qcurve" smooth="yes"/>
      <point x="294.0" y="1029.0"/>
      <point x="354.0" y="967.0"/>
      <point x="354.0" y="924.0" type="qcurve" smooth="yes"/>
      <point x="354.0" y="883.0"/>
      <point x="294.0" y="821.0"/>
      <point x="247.0" y="821.0" type="qcurve" smooth="yes"/>
      <point x="200.0" y="821.0"/>
      <point x="140.0" y="883.0"/>
    </contour>
    <contour>
      <point x="-36.0" y="-184.0" type="line"/>
      <point x="5.0" y="-157.0"/>
      <point x="102.0" y="-57.0"/>
      <point x="120.0" y="-6.0" type="qcurve"/>
      <point x="69.0" y="-8.0"/>
      <point x="9" y="52"/>
      <point x="9" y="95" type="qcurve" smooth="yes"/>
      <point x="9" y="144"/>
      <point x="66" y="207"/>
      <point x="113" y="207.0" type="qcurve" smooth="yes"/>
      <point x="165" y="207"/>
      <point x="229" y="146"/>
      <point x="229" y="83" type="qcurve" smooth="yes"/>
      <point x="229" y="-2"/>
      <point x="92.0" y="-192.0"/>
      <point x="10.0" y="-244.0" type="qcurve"/>
    </contour>
  </outline>
</glyph>
<glyph name="less" format="2">
  <advance width="908"/>
  <unicode hex="003C"/>
  <outline>
    <contour>
      <point x="-41.0" y="593.0" type="qcurve"/>
      <point x="52.0" y="657.0"/>
      <point x="615.0" y="999.0"/>
      <point x="712.0" y="1063.0" type="qcurve" smooth="yes"/>
      <point x="786.0" y="1114.0"/>
      <point x="810" y="1025"/>
      <point x="740.0" y="975.0" type="qcurve" smooth="yes"/>
      <point x="631.0" y="898.0"/>
      <point x="245.0" y="660.0"/>
      <point x="178.0" y="595.0" type="qcurve"/>
      <point x="247.0" y="527.0"/>
      <point x="578" y="283"/>
      <point x="663.0" y="220.0" type="qcurve" smooth="yes"/>
      <point x="725" y="174"/>
      <point x="688.0" y="84.0"/>
      <point x="624.0" y="139.0" type="qcurve" smooth="yes"/>
      <point x="551.0" y="198.0"/>
      <point x="57.0" y="521.0"/>
    </contour>
  </outline>
</glyph>
<glyph name="equal" format="2">
  <advance width="1238"/>
  <unicode hex="003D"/>
  <outline>
    <contour>
      <point x="39.0" y="394.0" type="line"/>
      <point x="60.0" y="506.0" type="line"/>
      <point x="540.0" y="500.0" type="line"/>
      <point x="1025.0" y="506.0" type="line"/>
      <point x="1004.0" y="394.0" type="line"/>
      <point x="519.0" y="394.0" type="line"/>
    </contour>
    <contour>
      <point x="120.0" y="746.0" type="line"/>
      <point x="140.0" y="858.0" type="line"/>
      <point x="620.0" y="858.0" type="line"/>
      <point x="1105.0" y="858.0" type="line"/>
      <point x="1085.0" y="746.0" type="line"/>
      <point x="600.0" y="752.0" type="line"/>
    </contour>
  </outline>
</glyph>
<glyph name="greater" format="2">
  <advance width="908"/>
  <unicode hex="003E"/>
  <outline>
    <contour>
      <point x="803.0" y="600.0" type="qcurve"/>
      <point x="757.0" y="561.0"/>
      <point x="168" y="209"/>
      <point x="45.0" y="121.0" type="qcurve" smooth="yes"/>
      <point x="-15.0" y="78.0"/>
      <point x="-52" y="176"/>
      <point x="21.0" y="222.0" type="qcurve" smooth="yes"/>
      <point x="125.0" y="288.0"/>
      <point x="523.0" y="534.0"/>
      <point x="604.0" y="586.0" type="qcurve"/>
      <point x="513.0" y="660.0"/>
      <point x="207" y="892"/>
      <point x="117.0" y="958.0" type="qcurve" smooth="yes"/>
      <point x="54" y="1004"/>
      <point x="83" y="1093"/>
      <point x="149.0" y="1044.0" type="qcurve" smooth="yes"/>
      <point x="224.0" y="988.0"/>
      <point x="736.0" y="655.0"/>
    </contour>
  </outline>
</glyph>
<glyph name="question" format="2">
  <advance width="1314"/>
  <unicode hex="003F"/>
  <outline>
    <contour>
      <point x="184.0" y="1301.0" type="qcurve" smooth="yes"/>
      <point x="206.0" y="1393.0"/>
      <point x="506.0" y="1524.0"/>
      <point x="734.0" y="1524.0" type="qcurve" smooth="yes"/>
      <point x="968.0" y="1524.0"/>
      <point x="1209.0" y="1319.0"/>
      <point x="1209.0" y="1194.0" type="qcurve" smooth="yes"/>
      <point x="1209.0" y="1050.0"/>
      <point x="979.0" y="855.0"/>
      <point x="791.0" y="781.0" type="qcurve" smooth="yes"/>
      <point x="625" y="716"/>
      <point x="426" y="597"/>
      <point x="399.0" y="522.0" type="qcurve" smooth="yes"/>
      <point x="383.0" y="477.0" type="line"/>
      <point x="283.0" y="477.0" type="line"/>
      <point x="296.0" y="539.0" type="line" smooth="yes"/>
      <point x="311" y="612"/>
      <point x="519.0" y="759.0"/>
      <point x="727.0" y="864.0" type="qcurve" smooth="yes"/>
      <point x="927.0" y="971.0"/>
      <point x="1063.0" y="1095.0"/>
      <point x="1063.0" y="1203.0" type="qcurve" smooth="yes"/>
      <point x="1063.0" y="1297.0"/>
      <point x="874.0" y="1425.0"/>
      <point x="718.0" y="1425.0" type="qcurve" smooth="yes"/>
      <point x="542.0" y="1425.0"/>
      <point x="334.0" y="1371.0"/>
      <point x="324.0" y="1309.0" type="qcurve" smooth="yes"/>
      <point x="320.0" y="1285.0"/>
      <point x="383.0" y="1240.0"/>
      <point x="387.0" y="1199.0" type="qcurve" smooth="yes"/>
      <point x="389.0" y="1161.0"/>
      <point x="340.0" y="1114.0"/>
      <point x="285.0" y="1114.0" type="qcurve" smooth="yes"/>
      <point x="235.0" y="1114.0"/>
      <point x="164.0" y="1203.0"/>
    </contour>
    <contour>
      <point x="182.0" y="90" type="qcurve" smooth="yes"/>
      <point x="182.0" y="133"/>
      <point x="247" y="202"/>
      <point x="298" y="202" type="qcurve" smooth="yes"/>
      <point x="350" y="202"/>
      <point x="416" y="133"/>
      <point x="416" y="90" type="qcurve" smooth="yes"/>
      <point x="416" y="44"/>
      <point x="350" y="-24"/>
      <point x="298" y="-24" type="qcurve" smooth="yes"/>
      <point x="247" y="-24"/>
      <point x="182.0" y="44"/>
    </contour>
  </outline>
</glyph>
<glyph name="at" format="2">
  <advance width="2222"/>
  <unicode hex="0040"/>
  <outline>
    <contour>
      <point x="545.0" y="536.0" type="qcurve" smooth="yes"/>
      <point x="545.0" y="788.0"/>
      <point x="952.0" y="1214.0"/>
      <point x="1247.0" y="1214.0" type="qcurve" smooth="yes"/>
      <point x="1277.0" y="1214.0"/>
      <point x="1360.0" y="1202.0"/>
      <point x="1381.0" y="1192.0" type="qcurve"/>
      <point x="1470.0" y="1245.0" type="line"/>
      <point x="1535.0" y="1245.0" type="line"/>
      <point x="1557.0" y="1137.0" type="line"/>
      <point x="1391.0" y="595.0" type="line"/>
      <point x="1367.0" y="467.0" type="line"/>
      <point x="1377.0" y="448.0"/>
      <point x="1446" y="424"/>
      <point x="1488.0" y="424.0" type="qcurve" smooth="yes"/>
      <point x="1651.0" y="424.0"/>
      <point x="1942.0" y="626.0"/>
      <point x="1972" y="856" type="qcurve" smooth="yes"/>
      <point x="2007.0" y="1130.0"/>
      <point x="1561.0" y="1436.0"/>
      <point x="1175.0" y="1436.0" type="qcurve" smooth="yes"/>
      <point x="805.0" y="1436.0"/>
      <point x="230.0" y="1074.0"/>
      <point x="170.0" y="748.0" type="qcurve" smooth="yes"/>
      <point x="113" y="441"/>
      <point x="480.0" y="63.0"/>
      <point x="886.0" y="63.0" type="qcurve" smooth="yes"/>
      <point x="1062.0" y="63.0"/>
      <point x="1350.0" y="115.0"/>
      <point x="1441.0" y="164.0" type="qcurve"/>
      <point x="1475.0" y="63.0" type="line"/>
      <point x="1375.0" y="15.0"/>
      <point x="1076.0" y="-39.0"/>
      <point x="881.0" y="-39.0" type="qcurve" smooth="yes"/>
      <point x="453.0" y="-39.0"/>
      <point x="-9" y="419"/>
      <point x="55.0" y="759.0" type="qcurve" smooth="yes"/>
      <point x="127.0" y="1143.0"/>
      <point x="777.0" y="1530.0"/>
      <point x="1217.0" y="1530.0" type="qcurve" smooth="yes"/>
      <point x="1651.0" y="1530.0"/>
      <point x="2118" y="1118"/>
      <point x="2085" y="850" type="qcurve" smooth="yes"/>
      <point x="2049.0" y="553.0"/>
      <point x="1673.0" y="327.0"/>
      <point x="1456.0" y="327.0" type="qcurve" smooth="yes"/>
      <point x="1346" y="327"/>
      <point x="1249.0" y="408.0"/>
      <point x="1252.0" y="513.0" type="qcurve"/>
      <point x="1149.0" y="412.0"/>
      <point x="961" y="329"/>
      <point x="814.0" y="329.0" type="qcurve" smooth="yes"/>
      <point x="697" y="329.0"/>
      <point x="545.0" y="444.0"/>
    </contour>
    <contour>
      <point x="677.0" y="555.0" type="qcurve" smooth="yes"/>
      <point x="677.0" y="491.0"/>
      <point x="785.0" y="429.0"/>
      <point x="889.0" y="429.0" type="qcurve" smooth="yes"/>
      <point x="1003.0" y="429.0"/>
      <point x="1284.0" y="607.0"/>
      <point x="1313.0" y="739.0" type="qcurve" smooth="yes"/>
      <point x="1398.0" y="1033.0" type="line"/>
      <point x="1394.0" y="1072.0"/>
      <point x="1292.0" y="1113.0"/>
      <point x="1216.0" y="1113.0" type="qcurve" smooth="yes"/>
      <point x="995.0" y="1113.0"/>
      <point x="677.0" y="779.0"/>
    </contour>
  </outline>
</glyph>
<glyph name="A" format="2">
  <advance width="1925"/>
  <unicode hex="0041"/>
  <outline>
    <contour>
      <point x="-202" y="0" type="line"/>
      <point x="-182" y="95" type="line"/>
      <point x="72" y="136" type="line"/>
      <point x="474" y="606" type="line"/>
      <point x="1263" y="1527" type="line"/>
      <point x="1427" y="1509" type="line"/>
      <point x="1508" y="602" type="line"/>
      <point x="1551" y="125" type="line"/>
      <point x="1757" y="95" type="line"/>
      <point x="1755" y="0" type="line"/>
      <point x="1212" y="0" type="line"/>
      <point x="1214" y="95" type="line"/>
      <point x="1426" y="129" type="line"/>
      <point x="1385" y="594" type="line"/>
      <point x="1312" y="1426" type="line"/>
      <point x="1307" y="1432" type="line"/>
      <point x="578" y="572" type="line"/>
      <point x="215" y="143" type="line"/>
      <point x="446" y="95" type="line"/>
      <point x="432" y="0" type="line"/>
    </contour>
    <contour>
      <point x="469" y="521" type="line"/>
      <point x="543" y="640" type="line"/>
      <point x="982" y="634" type="line"/>
      <point x="947" y="539" type="line"/>
    </contour>
    <contour>
      <point x="982" y="634" type="line"/>
      <point x="1444" y="642" type="line"/>
      <point x="1442" y="533" type="line"/>
      <point x="948" y="535" type="line"/>
    </contour>
  </outline>
</glyph>
<glyph name="B" format="2">
  <advance width="1804"/>
  <unicode hex="0042"/>
  <outline>
    <contour>
      <point x="-40" y="0" type="line"/>
      <point x="-16" y="94" type="line"/>
      <point x="199" y="124" type="line"/>
      <point x="327" y="777" type="line"/>
      <point x="444" y="1382" type="line"/>
      <point x="211" y="1407" type="line"/>
      <point x="222" y="1500" type="line"/>
      <point x="1263" y="1500" type="line" smooth="yes"/>
      <point x="1476" y="1500"/>
      <point x="1679" y="1312"/>
      <point x="1668" y="1156" type="qcurve" smooth="yes"/>
      <point x="1659" y="1022"/>
      <point x="1490" y="840"/>
      <point x="1349" y="800" type="qcurve"/>
      <point x="1348" y="793" type="line"/>
      <point x="1485" y="759"/>
      <point x="1651.0" y="560"/>
      <point x="1629" y="407" type="qcurve" smooth="yes"/>
      <point x="1602" y="222"/>
      <point x="1289" y="0"/>
      <point x="1045" y="0" type="qcurve" smooth="yes"/>
    </contour>
    <contour>
      <point x="326" y="134" type="line"/>
      <point x="344" y="101" type="line"/>
      <point x="1024" y="101" type="line" smooth="yes"/>
      <point x="1231" y="101"/>
      <point x="1483" y="273"/>
      <point x="1507" y="422" type="qcurve" smooth="yes"/>
      <point x="1527" y="545"/>
      <point x="1348" y="736.0"/>
      <point x="1179" y="736" type="qcurve" smooth="yes"/>
      <point x="442" y="736" type="line"/>
      <point x="437" y="713" type="line"/>
    </contour>
    <contour>
      <point x="466" y="854" type="line"/>
      <point x="461" y="835" type="line"/>
      <point x="1167" y="835" type="line" smooth="yes"/>
      <point x="1296" y="835"/>
      <point x="1527" y="1010"/>
      <point x="1544" y="1139" type="qcurve" smooth="yes"/>
      <point x="1561" y="1265"/>
      <point x="1387" y="1396"/>
      <point x="1223" y="1396" type="qcurve" smooth="yes"/>
      <point x="595" y="1396" type="line"/>
      <point x="566" y="1378" type="line"/>
    </contour>
  </outline>
</glyph>
<glyph name="C" format="2">
  <advance width="1719"/>
  <unicode hex="0043"/>
  <outline>
    <contour>
      <point x="34" y="884" type="qcurve" smooth="yes"/>
      <point x="105" y="1247"/>
      <point x="753" y="1576"/>
      <point x="1191" y="1522" type="qcurve" smooth="yes"/>
      <point x="1312" y="1507"/>
      <point x="1521" y="1427"/>
      <point x="1587" y="1395" type="qcurve"/>
      <point x="1622" y="1381" type="line"/>
      <point x="1653" y="1367" type="line"/>
      <point x="1592" y="1027" type="line"/>
      <point x="1492" y="1027" type="line"/>
      <point x="1495" y="1293" type="line"/>
      <point x="1456" y="1320"/>
      <point x="1269" y="1397"/>
      <point x="1153" y="1412" type="qcurve" smooth="yes"/>
      <point x="802" y="1456"/>
      <point x="218" y="1189"/>
      <point x="158" y="864" type="qcurve" smooth="yes"/>
      <point x="95" y="520"/>
      <point x="456" y="126"/>
      <point x="712" y="90" type="qcurve" smooth="yes"/>
      <point x="968" y="54"/>
      <point x="1406" y="170"/>
      <point x="1518" y="265" type="qcurve"/>
      <point x="1550" y="251" type="line"/>
      <point x="1594" y="169" type="line"/>
      <point x="1465" y="53"/>
      <point x="990" y="-62"/>
      <point x="682" y="-19" type="qcurve" smooth="yes"/>
      <point x="381" y="23"/>
      <point x="-46" y="477"/>
    </contour>
  </outline>
</glyph>
<glyph name="D" format="2">
  <advance width="2014"/>
  <unicode hex="0044"/>
  <outline>
    <contour>
      <point x="-40" y="0" type="line"/>
      <point x="-16" y="92" type="line"/>
      <point x="198" y="123" type="line"/>
      <point x="327" y="775" type="line"/>
      <point x="444" y="1385" type="line"/>
      <point x="209" y="1411" type="line"/>
      <point x="220" y="1500" type="line"/>
      <point x="997" y="1500" type="line" smooth="yes"/>
      <point x="1422" y="1500"/>
      <point x="1860" y="1119"/>
      <point x="1819" y="765" type="qcurve" smooth="yes"/>
      <point x="1781" y="436"/>
      <point x="1232" y="0"/>
      <point x="813" y="0" type="qcurve" smooth="yes"/>
    </contour>
    <contour>
      <point x="332" y="118" type="line"/>
      <point x="364" y="115"/>
      <point x="727" y="110"/>
      <point x="814" y="110" type="qcurve" smooth="yes"/>
      <point x="1167" y="110"/>
      <point x="1649" y="477"/>
      <point x="1684" y="754" type="qcurve" smooth="yes"/>
      <point x="1723" y="1064"/>
      <point x="1338" y="1396"/>
      <point x="990" y="1396" type="qcurve" smooth="yes"/>
      <point x="892" y="1396"/>
      <point x="615" y="1387"/>
      <point x="570" y="1385" type="qcurve"/>
      <point x="448" y="754" type="line"/>
    </contour>
  </outline>
</glyph>
<glyph name="E" format="2">
  <advance width="1731"/>
  <unicode hex="0045"/>
  <outline>
    <contour>
      <point x="-40" y="0" type="line"/>
      <point x="-19" y="93" type="line"/>
      <point x="199" y="125" type="line"/>
      <point x="338" y="806" type="line"/>
      <point x="448" y="1381" type="line"/>
      <point x="214" y="1406" type="line"/>
      <point x="228" y="1500" type="line"/>
      <point x="1645" y="1500" type="line"/>
      <point x="1614" y="1167" type="line"/>
      <point x="1525" y="1167" type="line"/>
      <point x="1480" y="1397" type="line"/>
      <point x="604" y="1397" type="line"/>
      <point x="569" y="1371" type="line"/>
      <point x="460" y="794" type="line"/>
      <point x="335" y="142" type="line"/>
      <point x="358" y="105" type="line"/>
      <point x="1338" y="105" type="line"/>
      <point x="1471" y="369" type="line"/>
      <point x="1561" y="369" type="line"/>
      <point x="1472" y="0" type="line"/>
    </contour>
    <contour>
      <point x="407" y="737" type="line"/>
      <point x="426" y="831" type="line"/>
      <point x="1263" y="839" type="line"/>
      <point x="1327" y="990" type="line"/>
      <point x="1420" y="990" type="line"/>
      <point x="1335" y="535" type="line"/>
      <point x="1246" y="535" type="line"/>
      <point x="1238" y="733" type="line"/>
    </contour>
  </outline>
</glyph>
<glyph name="F" format="2">
  <advance width="1580"/>
  <unicode hex="0046"/>
  <outline>
    <contour>
      <point x="-13.0" y="0.0" type="line"/>
      <point x="4.0" y="87.0" type="line"/>
      <point x="223.0" y="117.0" type="line"/>
      <point x="369.0" y="806.0" type="line"/>
      <point x="468.0" y="1382.0" type="line"/>
      <point x="215.0" y="1407.0" type="line"/>
      <point x="228.0" y="1500.0" type="line"/>
      <point x="1532.0" y="1500.0" type="line"/>
      <point x="1503.0" y="1187.0" type="line"/>
      <point x="1380.0" y="1187.0" type="line"/>
      <point x="1352.0" y="1400.0" type="line"/>
      <point x="653.0" y="1388.0" type="line"/>
      <point x="618.0" y="1368.0" type="line"/>
      <point x="497.0" y="801.0" type="line"/>
      <point x="378.0" y="117.0" type="line"/>
      <point x="597.0" y="87.0" type="line"/>
      <point x="582.0" y="0.0" type="line"/>
    </contour>
    <contour>
      <point x="414.0" y="683.0" type="line"/>
      <point x="433.0" y="775.0" type="line"/>
      <point x="1179.0" y="780.0" type="line"/>
      <point x="1251.0" y="943.0" type="line"/>
      <point x="1337.0" y="943.0" type="line"/>
      <point x="1262.0" y="493.0" type="line"/>
      <point x="1172.0" y="493.0" type="line"/>
      <point x="1174.0" y="671.0" type="line"/>
    </contour>
  </outline>
</glyph>
<glyph name="G" format="2">
  <advance width="2003"/>
  <unicode hex="0047"/>
  <outline>
    <contour>
      <point x="32" y="885" type="qcurve" smooth="yes"/>
      <point x="105" y="1251"/>
      <point x="762" y="1563"/>
      <point x="1145" y="1531" type="qcurve" smooth="yes"/>
      <point x="1360" y="1513"/>
      <point x="1649" y="1391"/>
      <point x="1710" y="1358" type="qcurve" smooth="yes"/>
      <point x="1740" y="1342" type="line"/>
      <point x="1774" y="1323" type="line"/>
      <point x="1708" y="1005" type="line"/>
      <point x="1609" y="1005" type="line"/>
      <point x="1618" y="1248" type="line"/>
      <point x="1569" y="1292"/>
      <point x="1308" y="1395"/>
      <point x="1120" y="1417" type="qcurve" smooth="yes"/>
      <point x="807" y="1453"/>
      <point x="217" y="1176"/>
      <point x="158" y="856" type="qcurve" smooth="yes"/>
      <point x="100" y="543"/>
      <point x="476" y="136"/>
      <point x="784" y="92" type="qcurve" smooth="yes"/>
      <point x="1020" y="58"/>
      <point x="1426" y="129"/>
      <point x="1524" y="192" type="qcurve"/>
      <point x="1596" y="566" type="line"/>
      <point x="1369" y="591" type="line"/>
      <point x="1383" y="690" type="line"/>
      <point x="1918" y="690" type="line"/>
      <point x="1901" y="590" type="line"/>
      <point x="1722" y="565" type="line"/>
      <point x="1635" y="140" type="line"/>
      <point x="1636" y="129" type="line"/>
      <point x="1540" y="59"/>
      <point x="1063" y="-60"/>
      <point x="755" y="-22" type="qcurve" smooth="yes"/>
      <point x="431" y="18"/>
      <point x="-46" y="492"/>
    </contour>
  </outline>
</glyph>
<glyph name="H" format="2">
  <advance width="2320"/>
  <unicode hex="0048"/>
  <outline>
    <contour>
      <point x="-40.0" y="0.0" type="line"/>
      <point x="-17.0" y="94.0" type="line"/>
      <point x="200.0" y="125.0" type="line"/>
      <point x="335.0" y="806.0" type="line"/>
      <point x="444.0" y="1382.0" type="line"/>
      <point x="211.0" y="1407.0" type="line"/>
      <point x="222.0" y="1500.0" type="line"/>
      <point x="822.0" y="1500.0" type="line"/>
      <point x="804.0" y="1408.0" type="line"/>
      <point x="570.0" y="1382.0" type="line"/>
      <point x="455.0" y="777.0" type="line"/>
      <point x="332.0" y="125.0" type="line"/>
      <point x="576.0" y="94.0" type="line"/>
      <point x="561.0" y="0.0" type="line"/>
    </contour>
    <contour>
      <point x="412.0" y="741.0" type="line"/>
      <point x="438.0" y="838.0" type="line"/>
      <point x="1115.0" y="835.0" type="line"/>
      <point x="1787.0" y="838.0" type="line"/>
      <point x="1761.0" y="741.0" type="line"/>
      <point x="1087.0" y="730.0" type="line"/>
    </contour>
    <contour>
      <point x="1362.0" y="0.0" type="line"/>
      <point x="1383.0" y="94.0" type="line"/>
      <point x="1629.0" y="125.0" type="line"/>
      <point x="1753.0" y="772.0" type="line"/>
      <point x="1859.0" y="1382.0" type="line"/>
      <point x="1637.0" y="1408.0" type="line"/>
      <point x="1648.0" y="1501.0" type="line"/>
      <point x="2234.0" y="1501.0" type="line"/>
      <point x="2218.0" y="1408.0" type="line"/>
      <point x="1992.0" y="1382.0" type="line"/>
      <point x="1874.0" y="755.0" type="line"/>
      <point x="1757.0" y="125.0" type="line"/>
      <point x="1990.0" y="94.0" type="line"/>
      <point x="1975.0" y="0.0" type="line"/>
    </contour>
  </outline>
</glyph>
<glyph name="I" format="2">
  <advance width="905"/>
  <unicode hex="0049"/>
  <outline>
    <contour>
      <point x="-38" y="0" type="line"/>
      <point x="-21" y="93" type="line"/>
      <point x="208" y="119" type="line"/>
      <point x="351" y="824" type="line"/>
      <point x="454" y="1381" type="line"/>
      <point x="215" y="1407" type="line"/>
      <point x="225" y="1500" type="line"/>
      <point x="844" y="1500" type="line"/>
      <point x="827" y="1407" type="line"/>
      <point x="582" y="1381" type="line"/>
      <point x="474" y="803" type="line"/>
      <point x="338" y="118" type="line"/>
      <point x="593" y="93" type="line"/>
      <point x="582" y="0" type="line"/>
    </contour>
  </outline>
</glyph>
<glyph name="J" format="2">
  <advance width="801"/>
  <unicode hex="004A"/>
  <outline>
    <contour>
      <point x="-310" y="-206" type="qcurve"/>
      <point x="-285" y="-106" type="line"/>
      <point x="-252" y="-120"/>
      <point x="-134" y="-142"/>
      <point x="-84" y="-142" type="qcurve" smooth="yes"/>
      <point x="17" y="-142"/>
      <point x="161" y="-6"/>
      <point x="191" y="151" type="qcurve" smooth="yes"/>
      <point x="307" y="754" type="line"/>
      <point x="414" y="1384" type="line"/>
      <point x="175" y="1410" type="line"/>
      <point x="192" y="1500" type="line"/>
      <point x="776" y="1500" type="line"/>
      <point x="763" y="1410" type="line"/>
      <point x="541" y="1384" type="line"/>
      <point x="428" y="754" type="line"/>
      <point x="327" y="176" type="line" smooth="yes"/>
      <point x="287" y="-55"/>
      <point x="76" y="-259"/>
      <point x="-61" y="-259" type="qcurve" smooth="yes"/>
      <point x="-163" y="-259"/>
      <point x="-274" y="-226"/>
    </contour>
  </outline>
</glyph>
<glyph name="K" format="2">
  <advance width="1865"/>
  <unicode hex="004B"/>
  <outline>
    <contour>
      <point x="-40.0" y="0.0" type="line"/>
      <point x="-18.0" y="94.0" type="line"/>
      <point x="199.0" y="124.0" type="line"/>
      <point x="344.0" y="828.0" type="line"/>
      <point x="444.0" y="1382.0" type="line"/>
      <point x="214.0" y="1407.0" type="line"/>
      <point x="223.0" y="1500.0" type="line"/>
      <point x="821.0" y="1500.0" type="line"/>
      <point x="805.0" y="1407.0" type="line"/>
      <point x="572.0" y="1382.0" type="line"/>
      <point x="463.0" y="825.0" type="line"/>
      <point x="332.0" y="124.0" type="line"/>
      <point x="580.0" y="89.0" type="line"/>
      <point x="567.0" y="0.0" type="line"/>
    </contour>
    <contour>
      <point x="372.0" y="532.0" type="line"/>
      <point x="393.0" y="658.0" type="line"/>
      <point x="1443.0" y="1389.0" type="line"/>
      <point x="1256.0" y="1410.0" type="line"/>
      <point x="1268.0" y="1500.0" type="line"/>
      <point x="1849.0" y="1500.0" type="line"/>
      <point x="1834.0" y="1410.0" type="line"/>
      <point x="1624.0" y="1395.0" type="line"/>
    </contour>
    <contour>
      <point x="775.0" y="866.0" type="line"/>
      <point x="876.0" y="940.0" type="line"/>
      <point x="1551.0" y="106.0" type="line"/>
      <point x="1779.0" y="84.0" type="line"/>
      <point x="1769.0" y="0.0" type="line"/>
      <point x="1137.0" y="0.0" type="line"/>
      <point x="1147.0" y="84.0" type="line"/>
      <point x="1395.0" y="106.0" type="line"/>
    </contour>
  </outline>
</glyph>
<glyph name="L" format="2">
  <advance width="1579"/>
  <unicode hex="004C"/>
  <outline>
    <contour>
      <point x="-43" y="0" type="line"/>
      <point x="-18" y="92" type="line"/>
      <point x="198" y="124" type="line"/>
      <point x="334" y="806" type="line"/>
      <point x="445" y="1386" type="line"/>
      <point x="204" y="1407" type="line"/>
      <point x="214" y="1500" type="line"/>
      <point x="861" y="1500" type="line"/>
      <point x="845" y="1407" type="line"/>
      <point x="575" y="1388" type="line"/>
      <point x="453" y="774" type="line"/>
      <point x="329" y="128" type="line"/>
      <point x="348" y="101" type="line"/>
      <point x="1221" y="101" type="line"/>
      <point x="1363" y="399" type="line"/>
      <point x="1464" y="399" type="line"/>
      <point x="1343" y="0" type="line"/>
    </contour>
  </outline>
</glyph>
<glyph name="M" format="2">
  <advance width="2550"/>
  <unicode hex="004D"/>
  <outline>
    <contour>
      <point x="-40" y="0" type="line"/>
      <point x="-18" y="92" type="line"/>
      <point x="203" y="127" type="line"/>
      <point x="318" y="729" type="line"/>
      <point x="443" y="1380" type="line"/>
      <point x="211" y="1406" type="line"/>
      <point x="221" y="1500" type="line"/>
      <point x="639" y="1500" type="line"/>
      <point x="875" y="725" type="line"/>
      <point x="1066" y="97" type="line"/>
      <point x="1528" y="757" type="line"/>
      <point x="2048" y="1500" type="line"/>
      <point x="2464" y="1500" type="line"/>
      <point x="2445" y="1404" type="line"/>
      <point x="2222" y="1382" type="line"/>
      <point x="2103" y="750" type="line"/>
      <point x="1986" y="127" type="line"/>
      <point x="2220" y="95" type="line"/>
      <point x="2207" y="0" type="line"/>
      <point x="1587" y="0" type="line"/>
      <point x="1610" y="93" type="line"/>
      <point x="1859" y="125" type="line"/>
      <point x="1981" y="767" type="line"/>
      <point x="2088" y="1381" type="line"/>
      <point x="1606" y="695" type="line"/>
      <point x="1112" y="-7" type="line"/>
      <point x="969" y="-7" type="line"/>
      <point x="762" y="689" type="line"/>
      <point x="555" y="1382" type="line"/>
      <point x="427" y="713" type="line"/>
      <point x="315" y="127" type="line"/>
      <point x="568" y="92" type="line"/>
      <point x="553" y="0" type="line"/>
    </contour>
  </outline>
</glyph>
<glyph name="N" format="2">
  <advance width="2160"/>
  <unicode hex="004E"/>
  <outline>
    <contour>
      <point x="-42" y="0" type="line"/>
      <point x="-17" y="94" type="line"/>
      <point x="201" y="125" type="line"/>
      <point x="319" y="734" type="line"/>
      <point x="445" y="1385" type="line"/>
      <point x="207" y="1404" type="line"/>
      <point x="222" y="1500" type="line"/>
      <point x="634" y="1500" type="line"/>
      <point x="1078" y="820" type="line"/>
      <point x="1533" y="131" type="line"/>
      <point x="1660" y="808" type="line"/>
      <point x="1767" y="1377" type="line"/>
      <point x="1521" y="1407" type="line"/>
      <point x="1537" y="1500" type="line"/>
      <point x="2122" y="1500" type="line"/>
      <point x="2108" y="1406" type="line"/>
      <point x="1879" y="1380" type="line"/>
      <point x="1763" y="778" type="line"/>
      <point x="1613" y="-4" type="line"/>
      <point x="1464" y="-4" type="line"/>
      <point x="976" y="741" type="line"/>
      <point x="554" y="1377" type="line"/>
      <point x="426" y="711" type="line"/>
      <point x="312" y="119" type="line"/>
      <point x="582" y="101" type="line"/>
      <point x="556" y="0" type="line"/>
    </contour>
  </outline>
</glyph>
<glyph name="O" format="2">
  <advance width="2170"/>
  <unicode hex="004F"/>
  <outline>
    <contour>
      <point x="95" y="883" type="qcurve" smooth="yes"/>
      <point x="170" y="1265"/>
      <point x="831" y="1559"/>
      <point x="1256" y="1513" type="qcurve" smooth="yes"/>
      <point x="1649" y="1470"/>
      <point x="2111" y="964"/>
      <point x="2037" y="620" type="qcurve" smooth="yes"/>
      <point x="1957" y="247"/>
      <point x="1326" y="-91"/>
      <point x="875" y="-33" type="qcurve" smooth="yes"/>
      <point x="461" y="20"/>
      <point x="21" y="507"/>
    </contour>
    <contour>
      <point x="224" y="867" type="qcurve" smooth="yes"/>
      <point x="163" y="548"/>
      <point x="529" y="129"/>
      <point x="886" y="80" type="qcurve" smooth="yes"/>
      <point x="1296" y="24"/>
      <point x="1840" y="317"/>
      <point x="1906" y="626" type="qcurve" smooth="yes"/>
      <point x="1974" y="944"/>
      <point x="1566" y="1360"/>
      <point x="1223" y="1403" type="qcurve" smooth="yes"/>
      <point x="886" y="1445"/>
      <point x="285" y="1186"/>
    </contour>
  </outline>
</glyph>
<glyph name="P" format="2">
  <advance width="1650"/>
  <unicode hex="0050"/>
  <outline>
    <contour>
      <point x="-41" y="0" type="line"/>
      <point x="-23" y="93" type="line"/>
      <point x="201" y="120" type="line"/>
      <point x="333" y="781" type="line"/>
      <point x="448" y="1382" type="line"/>
      <point x="206" y="1410" type="line"/>
      <point x="215" y="1500" type="line"/>
      <point x="1056" y="1500" type="line" smooth="yes"/>
      <point x="1322" y="1500"/>
      <point x="1561" y="1235"/>
      <point x="1522" y="1012" type="qcurve" smooth="yes"/>
      <point x="1481" y="776"/>
      <point x="1120" y="573"/>
      <point x="864" y="573" type="qcurve" smooth="yes"/>
      <point x="715" y="573"/>
      <point x="432" y="601"/>
      <point x="385" y="609" type="qcurve"/>
      <point x="402" y="722" type="line"/>
      <point x="454" y="713"/>
      <point x="767" y="685"/>
      <point x="840" y="685" type="qcurve" smooth="yes"/>
      <point x="1060" y="685"/>
      <point x="1364" y="830"/>
      <point x="1396" y="1031" type="qcurve" smooth="yes"/>
      <point x="1424" y="1202"/>
      <point x="1232" y="1396"/>
      <point x="1025" y="1396" type="qcurve" smooth="yes"/>
      <point x="600" y="1396" type="line"/>
      <point x="574" y="1374" type="line"/>
      <point x="449" y="764" type="line"/>
      <point x="329" y="122" type="line"/>
      <point x="579" y="93" type="line"/>
      <point x="562" y="0" type="line"/>
    </contour>
  </outline>
</glyph>
<glyph name="Q" format="2">
  <advance width="2101"/>
  <unicode hex="0051"/>
  <outline>
    <contour>
      <point x="32" y="883" type="qcurve" smooth="yes"/>
      <point x="111" y="1265"/>
      <point x="768.0" y="1559.0"/>
      <point x="1193.0" y="1513.0" type="qcurve" smooth="yes"/>
      <point x="1586" y="1470"/>
      <point x="2052" y="964"/>
      <point x="1974.0" y="620.0" type="qcurve" smooth="yes"/>
      <point x="1895" y="270"/>
      <point x="1264" y="-68"/>
      <point x="813" y="-10" type="qcurve" smooth="yes"/>
      <point x="399" y="43"/>
      <point x="-41" y="530"/>
    </contour>
    <contour>
      <point x="161.0" y="867.0" type="qcurve" smooth="yes"/>
      <point x="101" y="571"/>
      <point x="467" y="149"/>
      <point x="824.0" y="99.0" type="qcurve" smooth="yes"/>
      <point x="1233" y="42"/>
      <point x="1778" y="340"/>
      <point x="1843.0" y="626.0" type="qcurve" smooth="yes"/>
      <point x="1915" y="943"/>
      <point x="1503.0" y="1360.0"/>
      <point x="1160" y="1403" type="qcurve" smooth="yes"/>
      <point x="823" y="1445"/>
      <point x="226" y="1186"/>
    </contour>
    <contour>
      <point x="157.0" y="-332.0" type="line"/>
      <point x="214.0" y="-241.0"/>
      <point x="442.0" y="-118.0"/>
      <point x="556.0" y="-109.0" type="qcurve"/>
      <point x="591.0" y="-78.0"/>
      <point x="861.0" y="162.0"/>
      <point x="881.0" y="184.0" type="qcurve" smooth="yes"/>
      <point x="890" y="193"/>
      <point x="901.0" y="208.0"/>
      <point x="910.0" y="211.0" type="qcurve"/>
      <point x="931.0" y="204.0"/>
      <point x="1008.0" y="169.0"/>
      <point x="1019.0" y="160.0" type="qcurve"/>
      <point x="1009.0" y="151.0"/>
      <point x="995" y="141"/>
      <point x="982.0" y="131.0" type="qcurve" smooth="yes"/>
      <point x="964.0" y="117.0"/>
      <point x="679.0" y="-119.0"/>
      <point x="656.0" y="-138.0" type="qcurve"/>
      <point x="1316.0" y="-366.0" type="line"/>
      <point x="1410" y="-399"/>
      <point x="1634.0" y="-323.0"/>
      <point x="1724.0" y="-163.0" type="qcurve"/>
      <point x="1818.0" y="-216.0" type="line"/>
      <point x="1727.0" y="-391.0"/>
      <point x="1455.0" y="-514.0"/>
      <point x="1306.0" y="-487.0" type="qcurve"/>
      <point x="588.0" y="-240.0" type="line"/>
      <point x="481.0" y="-221.0"/>
      <point x="299.0" y="-319.0"/>
      <point x="235.0" y="-396.0" type="qcurve"/>
    </contour>
  </outline>
</glyph>
<glyph name="R" format="2">
  <advance width="1735"/>
  <unicode hex="0052"/>
  <outline>
    <contour>
      <point x="-41" y="0" type="line"/>
      <point x="-11" y="94" type="line"/>
      <point x="203" y="121" type="line"/>
      <point x="331" y="784" type="line"/>
      <point x="447" y="1380" type="line"/>
      <point x="202" y="1407" type="line"/>
      <point x="213" y="1500" type="line"/>
      <point x="1046" y="1500" type="line" smooth="yes"/>
      <point x="1314" y="1500"/>
      <point x="1558" y="1296"/>
      <point x="1543" y="1100" type="qcurve" smooth="yes"/>
      <point x="1532" y="917"/>
      <point x="1216" y="661"/>
      <point x="859" y="661" type="qcurve" smooth="yes"/>
      <point x="779" y="661"/>
      <point x="444" y="660"/>
      <point x="378" y="665" type="qcurve"/>
      <point x="404" y="771" type="line"/>
      <point x="539" y="771" type="line"/>
      <point x="919" y="771" type="line" smooth="yes"/>
      <point x="1142" y="771"/>
      <point x="1407" y="951"/>
      <point x="1417" y="1100" type="qcurve" smooth="yes"/>
      <point x="1427" y="1238"/>
      <point x="1250" y="1397"/>
      <point x="1065" y="1397" type="qcurve" smooth="yes"/>
      <point x="605" y="1397" type="line"/>
      <point x="572" y="1375" type="line"/>
      <point x="451" y="754" type="line"/>
      <point x="332" y="124" type="line"/>
      <point x="579" y="97" type="line"/>
      <point x="568" y="0" type="line"/>
    </contour>
    <contour>
      <point x="996" y="730" type="line"/>
      <point x="1124" y="749" type="line"/>
      <point x="1133" y="718" type="line" smooth="yes"/>
      <point x="1211" y="448"/>
      <point x="1441" y="86"/>
      <point x="1693" y="86" type="qcurve"/>
      <point x="1675" y="0" type="line"/>
      <point x="1575" y="0" type="line" smooth="yes"/>
      <point x="1339" y="0"/>
      <point x="1081" y="428"/>
      <point x="1006" y="691" type="qcurve" smooth="yes"/>
    </contour>
  </outline>
</glyph>
<glyph name="S" format="2">
  <advance width="1473"/>
  <unicode hex="0053"/>
  <outline>
    <contour>
      <point x="-63" y="14" type="line"/>
      <point x="9" y="456" type="line"/>
      <point x="110" y="454" type="line"/>
      <point x="114" y="319" type="line" smooth="yes"/>
      <point x="118" y="186"/>
      <point x="422" y="70"/>
      <point x="689" y="70" type="qcurve" smooth="yes"/>
      <point x="925" y="70"/>
      <point x="1192" y="242"/>
      <point x="1196" y="381" type="qcurve" smooth="yes"/>
      <point x="1199" y="499"/>
      <point x="1021" y="641"/>
      <point x="723" y="735" type="qcurve" smooth="yes"/>
      <point x="448" y="822"/>
      <point x="173" y="1005"/>
      <point x="178" y="1161" type="qcurve" smooth="yes"/>
      <point x="183" y="1325"/>
      <point x="481" y="1517"/>
      <point x="756" y="1517" type="qcurve" smooth="yes"/>
      <point x="912" y="1517"/>
      <point x="1200" y="1426"/>
      <point x="1254" y="1393" type="qcurve"/>
      <point x="1315" y="1494" type="line"/>
      <point x="1392" y="1485" type="line"/>
      <point x="1321" y="1073" type="line"/>
      <point x="1222" y="1073" type="line"/>
      <point x="1222" y="1253" type="line"/>
      <point x="1189" y="1302"/>
      <point x="935" y="1410"/>
      <point x="761" y="1410" type="qcurve" smooth="yes"/>
      <point x="559" y="1410"/>
      <point x="312" y="1275"/>
      <point x="307" y="1162" type="qcurve" smooth="yes"/>
      <point x="302" y="1046"/>
      <point x="546" y="916"/>
      <point x="819" y="830" type="qcurve" smooth="yes"/>
      <point x="1115" y="736"/>
      <point x="1326" y="537"/>
      <point x="1321" y="368" type="qcurve" smooth="yes"/>
      <point x="1316" y="192"/>
      <point x="1003" y="-37"/>
      <point x="669" y="-37" type="qcurve" smooth="yes"/>
      <point x="486" y="-37"/>
      <point x="171" y="42"/>
      <point x="82" y="114" type="qcurve"/>
      <point x="19" y="-8" type="line"/>
    </contour>
  </outline>
</glyph>
<glyph name="T" format="2">
  <advance width="1712"/>
  <unicode hex="0054"/>
  <outline>
    <contour>
      <point x="56" y="1119" type="line"/>
      <point x="131" y="1500" type="line"/>
      <point x="1750" y="1500" type="line"/>
      <point x="1685" y="1119" type="line"/>
      <point x="1585" y="1119" type="line"/>
      <point x="1583" y="1397" type="line"/>
      <point x="1002" y="1397" type="line"/>
      <point x="980" y="1377" type="line"/>
      <point x="863" y="754" type="line"/>
      <point x="735" y="116" type="line"/>
      <point x="990" y="94" type="line"/>
      <point x="975" y="0" type="line"/>
      <point x="336" y="0" type="line"/>
      <point x="347" y="94" type="line"/>
      <point x="608" y="116" type="line"/>
      <point x="734" y="754" type="line"/>
      <point x="847" y="1377" type="line"/>
      <point x="843" y="1397" type="line"/>
      <point x="258" y="1397" type="line"/>
      <point x="155" y="1119" type="line"/>
    </contour>
  </outline>
</glyph>
<glyph name="U" format="2">
  <advance width="2005"/>
  <unicode hex="0055"/>
  <outline>
    <contour>
      <point x="49" y="1408" type="line"/>
      <point x="63" y="1500" type="line"/>
      <point x="667" y="1500" type="line"/>
      <point x="651" y="1408" type="line"/>
      <point x="413" y="1382" type="line"/>
      <point x="302" y="794" type="line" smooth="yes"/>
      <point x="278" y="668"/>
      <point x="253" y="481"/>
      <point x="266" y="376" type="qcurve" smooth="yes"/>
      <point x="283" y="239"/>
      <point x="558" y="79"/>
      <point x="824" y="79" type="qcurve" smooth="yes"/>
      <point x="1095" y="79"/>
      <point x="1404" y="319"/>
      <point x="1445" y="515" type="qcurve" smooth="yes"/>
      <point x="1503" y="794" type="line"/>
      <point x="1612" y="1382" type="line"/>
      <point x="1343" y="1408" type="line"/>
      <point x="1356" y="1500" type="line"/>
      <point x="1989" y="1500" type="line"/>
      <point x="1976" y="1408" type="line"/>
      <point x="1723" y="1382" type="line"/>
      <point x="1613" y="794" type="line"/>
      <point x="1557" y="493" type="line" smooth="yes"/>
      <point x="1511" y="246"/>
      <point x="1148" y="-35"/>
      <point x="796" y="-35" type="qcurve" smooth="yes"/>
      <point x="465" y="-35"/>
      <point x="157" y="188"/>
      <point x="129" y="346" type="qcurve" smooth="yes"/>
      <point x="111" y="447"/>
      <point x="146" y="639"/>
      <point x="175" y="794" type="qcurve" smooth="yes"/>
      <point x="286" y="1382" type="line"/>
    </contour>
  </outline>
</glyph>
<glyph name="V" format="2">
  <advance width="2049"/>
  <unicode hex="0056"/>
  <outline>
    <contour>
      <point x="97.0" y="1408.0" type="line"/>
      <point x="106.0" y="1500.0" type="line"/>
      <point x="853.0" y="1500.0" type="line"/>
      <point x="844.0" y="1408.0" type="line"/>
      <point x="550.0" y="1379.0" type="line"/>
      <point x="628.0" y="777.0" type="line"/>
      <point x="723.0" y="77.0" type="line"/>
      <point x="736.0" y="77.0" type="line"/>
      <point x="1246.0" y="810.0" type="line"/>
      <point x="1647.0" y="1371.0" type="line"/>
      <point x="1375.0" y="1407.0" type="line"/>
      <point x="1397.0" y="1500.0" type="line"/>
      <point x="2123.0" y="1500.0" type="line"/>
      <point x="2091.0" y="1407.0" type="line"/>
      <point x="1828.0" y="1377.0" type="line"/>
      <point x="1376.0" y="770.0" type="line"/>
      <point x="789.0" y="-7.0" type="line"/>
      <point x="577.0" y="-7.0" type="line"/>
      <point x="503.0" y="752.0" type="line"/>
      <point x="402.0" y="1377.0" type="line"/>
    </contour>
  </outline>
</glyph>
<glyph name="W" format="2">
  <advance width="2542"/>
  <unicode hex="0057"/>
  <outline>
    <contour>
      <point x="37" y="1408" type="line"/>
      <point x="37" y="1500" type="line"/>
      <point x="700" y="1500" type="line"/>
      <point x="692" y="1408" type="line"/>
      <point x="410" y="1379" type="line"/>
      <point x="460" y="807" type="line"/>
      <point x="522" y="103" type="line"/>
      <point x="537" y="103" type="line"/>
      <point x="979" y="732" type="line"/>
      <point x="1277" y="1156" type="line"/>
      <point x="1283" y="1008" type="line"/>
      <point x="1050" y="674" type="line"/>
      <point x="575" y="-5" type="line"/>
      <point x="414" y="-5" type="line"/>
      <point x="347" y="773" type="line"/>
      <point x="294" y="1378" type="line"/>
    </contour>
    <contour>
      <point x="920" y="1408" type="line"/>
      <point x="926" y="1500" type="line"/>
      <point x="1587" y="1500" type="line"/>
      <point x="1582" y="1409" type="line"/>
      <point x="1299" y="1379" type="line"/>
      <point x="1354" y="753" type="line"/>
      <point x="1411" y="103" type="line"/>
      <point x="1426" y="103" type="line"/>
      <point x="1903" y="796" type="line"/>
      <point x="2298" y="1369" type="line"/>
      <point x="2047" y="1409" type="line"/>
      <point x="2054" y="1500" type="line"/>
      <point x="2713" y="1500" type="line"/>
      <point x="2689" y="1409" type="line"/>
      <point x="2427" y="1374" type="line"/>
      <point x="1984" y="739" type="line"/>
      <point x="1464" y="-5" type="line"/>
      <point x="1303" y="-5" type="line"/>
      <point x="1241" y="708" type="line"/>
      <point x="1183" y="1378" type="line"/>
    </contour>
  </outline>
</glyph>
<glyph name="X" format="2">
  <advance width="1748"/>
  <unicode hex="0058"/>
  <outline>
    <contour>
      <point x="-237" y="0" type="line"/>
      <point x="-214" y="92" type="line"/>
      <point x="30" y="117" type="line"/>
      <point x="849" y="812" type="line"/>
      <point x="875" y="812" type="line"/>
      <point x="1516" y="1380" type="line"/>
      <point x="1288" y="1416" type="line"/>
      <point x="1315" y="1500" type="line"/>
      <point x="1904" y="1500" type="line"/>
      <point x="1883" y="1416" type="line"/>
      <point x="1664" y="1389" type="line"/>
      <point x="918" y="730" type="line"/>
      <point x="892" y="730" type="line"/>
      <point x="178" y="122" type="line"/>
      <point x="416" y="92" type="line"/>
      <point x="393" y="0" type="line"/>
    </contour>
    <contour>
      <point x="211" y="1417" type="line"/>
      <point x="214" y="1500" type="line"/>
      <point x="969" y="1500" type="line"/>
      <point x="966" y="1416" type="line"/>
      <point x="586" y="1391" type="line"/>
      <point x="934" y="821" type="line"/>
      <point x="1366" y="112" type="line"/>
      <point x="1620" y="87" type="line"/>
      <point x="1605" y="0" type="line"/>
      <point x="964" y="0" type="line"/>
      <point x="958" y="87" type="line"/>
      <point x="1218" y="112" type="line"/>
      <point x="832" y="752" type="line"/>
      <point x="448" y="1388" type="line"/>
    </contour>
  </outline>
</glyph>
<glyph name="Y" format="2">
  <advance width="1719"/>
  <unicode hex="0059"/>
  <outline>
    <contour>
      <point x="-37" y="1413" type="line"/>
      <point x="-31" y="1500" type="line"/>
      <point x="528" y="1500" type="line"/>
      <point x="522" y="1413" type="line"/>
      <point x="304" y="1389" type="line"/>
      <point x="534" y="1015" type="line"/>
      <point x="731" y="694" type="line"/>
      <point x="1063" y="1017" type="line"/>
      <point x="1432" y="1376" type="line"/>
      <point x="1239" y="1408" type="line"/>
      <point x="1255" y="1500" type="line"/>
      <point x="1802" y="1500" type="line"/>
      <point x="1785" y="1408" type="line"/>
      <point x="1566" y="1374" type="line"/>
      <point x="1133" y="950" type="line"/>
      <point x="779" y="604" type="line"/>
      <point x="685" y="118" type="line"/>
      <point x="939" y="94" type="line"/>
      <point x="928" y="0" type="line"/>
      <point x="278" y="0" type="line"/>
      <point x="292" y="94" type="line"/>
      <point x="553" y="120" type="line"/>
      <point x="652" y="593" type="line"/>
      <point x="427" y="959" type="line"/>
      <point x="169" y="1379" type="line"/>
    </contour>
  </outline>
</glyph>
<glyph name="backslash" format="2">
  <advance width="796"/>
  <unicode hex="005C"/>
  <outline>
    <contour>
      <point x="88.0" y="1522.0" type="line"/>
      <point x="191.0" y="1536.0" type="line"/>
      <point x="612.0" y="-137.0" type="line"/>
      <point x="509.0" y="-151.0" type="line"/>
    </contour>
  </outline>
</glyph>
<glyph name="bracketright" format="2">
  <advance width="680"/>
  <unicode hex="005D"/>
  <outline>
    <contour>
      <point x="-233.0" y="-480.0" type="line"/>
      <point x="-212.0" y="-394.0" type="line"/>
      <point x="49.0" y="-375.0" type="line"/>
      <point x="222.0" y="516.0" type="line"/>
      <point x="387.0" y="1393.0" type="line"/>
      <point x="133.0" y="1412.0" type="line"/>
      <point x="152.0" y="1500.0" type="line"/>
      <point x="540.0" y="1500.0" type="line"/>
      <point x="528.0" y="1447.0" type="line"/>
      <point x="515.0" y="1427.0" type="line"/>
      <point x="338.0" y="516.0" type="line"/>
      <point x="160.0" y="-407.0" type="line"/>
      <point x="165.0" y="-427.0" type="line"/>
      <point x="155.0" y="-480.0" type="line"/>
    </contour>
  </outline>
</glyph>
<glyph name="asciicircum" format="2">
  <advance width="1317"/>
  <unicode hex="005E"/>
  <outline>
    <contour>
      <point x="91.0" y="926.0" type="line"/>
      <point x="157.0" y="988.0"/>
      <point x="723.0" y="1524.0"/>
      <point x="723.0" y="1524.0" type="qcurve"/>
      <point x="723.0" y="1524.0"/>
      <point x="1112.0" y="993.0"/>
      <point x="1163.0" y="927.0" type="qcurve"/>
      <point x="1087.0" y="871.0" type="line"/>
      <point x="984.0" y="993.0"/>
      <point x="697.0" y="1356.0"/>
      <point x="697.0" y="1356.0" type="qcurve"/>
      <point x="697.0" y="1356.0"/>
      <point x="294.0" y="973.0"/>
      <point x="150.0" y="846.0" type="qcurve"/>
    </contour>
  </outline>
</glyph>
<glyph name="underscore" format="2">
  <advance width="1778"/>
  <unicode hex="005F"/>
  <outline>
    <contour>
      <point x="-278" y="-487" type="line"/>
      <point x="-262" y="-377" type="line"/>
      <point x="735" y="-393" type="line"/>
      <point x="1721" y="-377" type="line"/>
      <point x="1705" y="-487" type="line"/>
      <point x="719" y="-483" type="line"/>
    </contour>
  </outline>
</glyph>
<glyph name="grave" format="2">
  <advance width="1024"/>
  <unicode hex="0060"/>
  <outline>
    <contour>
      <point x="477.0" y="1258.0" type="qcurve" smooth="yes"/>
      <point x="783.0" y="1082.0" type="line"/>
      <point x="816.0" y="1142.0" type="line"/>
      <point x="568.0" y="1351.0" type="line" smooth="yes"/>
      <point x="532" y="1381"/>
      <point x="431" y="1455"/>
      <point x="399.0" y="1455.0" type="qcurve" smooth="yes"/>
      <point x="370" y="1455.0"/>
      <point x="330" y="1416"/>
      <point x="330.0" y="1385.0" type="qcurve" smooth="yes"/>
      <point x="330.0" y="1339"/>
      <point x="429" y="1285"/>
    </contour>
  </outline>
</glyph>
<glyph name="a" format="2">
  <advance width="1601"/>
  <unicode hex="0061"/>
  <outline>
    <contour>
      <point x="0.0" y="335.0" type="qcurve" smooth="yes"/>
      <point x="0" y="632"/>
      <point x="550" y="1070"/>
      <point x="903.0" y="1070.0" type="qcurve" smooth="yes"/>
      <point x="1033" y="1070"/>
      <point x="1226" y="996"/>
      <point x="1264" y="966" type="qcurve"/>
      <point x="1324" y="1066" type="line"/>
      <point x="1375" y="1066" type="line"/>
      <point x="1388" y="946" type="line"/>
      <point x="1231" y="389" type="line"/>
      <point x="1195" y="209" type="line"/>
      <point x="1213" y="153"/>
      <point x="1271" y="74"/>
      <point x="1305" y="40" type="qcurve"/>
      <point x="1178" y="-23" type="line"/>
      <point x="1148" y="10"/>
      <point x="1079" y="112"/>
      <point x="1075" y="176" type="qcurve"/>
      <point x="982" y="90"/>
      <point x="652" y="-29"/>
      <point x="443" y="-29" type="qcurve" smooth="yes"/>
      <point x="229" y="-29"/>
      <point x="0" y="162"/>
    </contour>
    <contour>
      <point x="117.0" y="329.0" type="qcurve" smooth="yes"/>
      <point x="117" y="203"/>
      <point x="300" y="79"/>
      <point x="499" y="79.0" type="qcurve" smooth="yes"/>
      <point x="704" y="79"/>
      <point x="1080" y="242"/>
      <point x="1123" y="408" type="qcurve" smooth="yes"/>
      <point x="1240" y="859" type="line"/>
      <point x="1212" y="885"/>
      <point x="1011" y="958"/>
      <point x="881.0" y="958.0" type="qcurve" smooth="yes"/>
      <point x="566" y="958"/>
      <point x="117" y="566"/>
    </contour>
  </outline>
</glyph>
<glyph name="b" format="2">
  <advance width="1621"/>
  <unicode hex="0062"/>
  <outline>
    <contour>
      <point x="134" y="229" type="qcurve" smooth="yes"/>
      <point x="242" y="644" type="line"/>
      <point x="427" y="1475" type="line"/>
      <point x="161" y="1482" type="line"/>
      <point x="173" y="1564" type="line"/>
      <point x="538" y="1633" type="line"/>
      <point x="573" y="1590" type="line"/>
      <point x="356" y="631" type="line"/>
      <point x="254" y="212" type="line" smooth="yes"/>
      <point x="235" y="136"/>
      <point x="370" y="80"/>
      <point x="493" y="80" type="qcurve" smooth="yes"/>
      <point x="822" y="80"/>
      <point x="1338" y="455"/>
      <point x="1338" y="707" type="qcurve" smooth="yes"/>
      <point x="1338" y="831"/>
      <point x="1197" y="944"/>
      <point x="1076" y="942" type="qcurve" smooth="yes"/>
      <point x="904" y="939"/>
      <point x="469" y="748"/>
      <point x="299" y="604" type="qcurve"/>
      <point x="325" y="727" type="line"/>
      <point x="415" y="812"/>
      <point x="890" y="1063"/>
      <point x="1124" y="1063" type="qcurve" smooth="yes"/>
      <point x="1279" y="1063"/>
      <point x="1464" y="891"/>
      <point x="1464" y="735" type="qcurve" smooth="yes"/>
      <point x="1464" y="423"/>
      <point x="855" y="-26"/>
      <point x="447" y="-26" type="qcurve" smooth="yes"/>
      <point x="262" y="-26"/>
      <point x="102" y="107"/>
    </contour>
  </outline>
</glyph>
<glyph name="c" format="2">
  <advance width="1401"/>
  <unicode hex="0063"/>
  <outline>
    <contour>
      <point x="7" y="520" type="qcurve" smooth="yes"/>
      <point x="54.0" y="772.0"/>
      <point x="523" y="1088.0"/>
      <point x="828.0" y="1088.0" type="qcurve" smooth="yes"/>
      <point x="1013" y="1088"/>
      <point x="1254.0" y="957"/>
      <point x="1254.0" y="838.0" type="qcurve" smooth="yes"/>
      <point x="1254" y="754"/>
      <point x="1191" y="673.0"/>
      <point x="1134.0" y="673.0" type="qcurve"/>
      <point x="1080.0" y="724.0" type="line"/>
      <point x="1085.0" y="903.0" type="line" smooth="yes"/>
      <point x="1086" y="933"/>
      <point x="935" y="980"/>
      <point x="818" y="980.0" type="qcurve" smooth="yes"/>
      <point x="564" y="980.0"/>
      <point x="171" y="706"/>
      <point x="131.0" y="507.0" type="qcurve" smooth="yes"/>
      <point x="90" y="301"/>
      <point x="345" y="90"/>
      <point x="544" y="90.0" type="qcurve" smooth="yes"/>
      <point x="715" y="90"/>
      <point x="1023.0" y="234.0"/>
      <point x="1125.0" y="332.0" type="qcurve"/>
      <point x="1190.0" y="272.0" type="line"/>
      <point x="1193.0" y="243.0" type="line"/>
      <point x="1055.0" y="116.0"/>
      <point x="725" y="-18"/>
      <point x="508" y="-18" type="qcurve" smooth="yes"/>
      <point x="271" y="-18"/>
      <point x="-38" y="278"/>
    </contour>
  </outline>
</glyph>
<glyph name="d" format="2">
  <advance width="1687"/>
  <unicode hex="0064"/>
  <outline>
    <contour>
      <point x="2" y="329" type="qcurve" smooth="yes"/>
      <point x="2" y="591"/>
      <point x="574" y="1045"/>
      <point x="1045" y="1045" type="qcurve" smooth="yes"/>
      <point x="1275" y="1045" type="line"/>
      <point x="1378" y="1475" type="line"/>
      <point x="1122" y="1488" type="line"/>
      <point x="1127" y="1561" type="line"/>
      <point x="1487" y="1636" type="line"/>
      <point x="1521" y="1597" type="line"/>
      <point x="1250" y="469" type="line"/>
      <point x="1162" y="94" type="line"/>
      <point x="1480" y="121" type="line"/>
      <point x="1480" y="33" type="line"/>
      <point x="1142" y="-36" type="line"/>
      <point x="1052" y="58" type="line"/>
      <point x="1057" y="160" type="line"/>
      <point x="964" y="87"/>
      <point x="632" y="-20"/>
      <point x="423" y="-20" type="qcurve" smooth="yes"/>
      <point x="218" y="-20"/>
      <point x="2" y="151"/>
    </contour>
    <contour>
      <point x="122" y="330" type="qcurve" smooth="yes"/>
      <point x="124" y="184"/>
      <point x="291" y="80"/>
      <point x="464" y="80" type="qcurve" smooth="yes"/>
      <point x="672" y="80"/>
      <point x="1089" y="257"/>
      <point x="1128" y="421" type="qcurve" smooth="yes"/>
      <point x="1240" y="892" type="line"/>
      <point x="1224" y="918"/>
      <point x="1141" y="945"/>
      <point x="1047" y="945" type="qcurve" smooth="yes"/>
      <point x="602" y="945"/>
      <point x="119" y="532"/>
    </contour>
  </outline>
</glyph>
<glyph name="e" format="2">
  <advance width="1487"/>
  <unicode hex="0065"/>
  <outline>
    <contour>
      <point x="12" y="532" type="qcurve" smooth="yes"/>
      <point x="60" y="771"/>
      <point x="508" y="1088"/>
      <point x="791" y="1088" type="qcurve" smooth="yes"/>
      <point x="971" y="1088"/>
      <point x="1223" y="978"/>
      <point x="1277" y="877" type="qcurve" smooth="yes"/>
      <point x="1307" y="821"/>
      <point x="1320" y="681"/>
      <point x="1300" y="600" type="qcurve"/>
      <point x="1346" y="578" type="line"/>
      <point x="1319" y="513" type="line"/>
      <point x="1237" y="519"/>
      <point x="888" y="520"/>
      <point x="783" y="520" type="qcurve" smooth="yes"/>
      <point x="98" y="518" type="line"/>
      <point x="108" y="616" type="line"/>
      <point x="1167" y="608" type="line"/>
      <point x="1185" y="669"/>
      <point x="1173" y="785"/>
      <point x="1143" y="833" type="qcurve" smooth="yes"/>
      <point x="1100" y="900"/>
      <point x="913" y="983"/>
      <point x="768" y="983" type="qcurve" smooth="yes"/>
      <point x="551" y="983"/>
      <point x="159" y="693"/>
      <point x="124" y="521" type="qcurve" smooth="yes"/>
      <point x="82" y="316"/>
      <point x="339" y="86"/>
      <point x="561" y="86" type="qcurve"/>
      <point x="760" y="86"/>
      <point x="1137" y="236"/>
      <point x="1224" y="322" type="qcurve"/>
      <point x="1277" y="269" type="line"/>
      <point x="1277" y="243" type="line"/>
      <point x="1176" y="141"/>
      <point x="781" y="-20"/>
      <point x="532" y="-20" type="qcurve"/>
      <point x="273" y="-20"/>
      <point x="-39" y="278"/>
    </contour>
  </outline>
</glyph>
<glyph name="f" format="2">
  <advance width="829"/>
  <unicode hex="0066"/>
  <outline>
    <contour>
      <point x="-459" y="-423" type="line"/>
      <point x="-441" y="-361" type="line"/>
      <point x="-256" y="-361" type="line" smooth="yes"/>
      <point x="-150" y="-361"/>
      <point x="66" y="-266"/>
      <point x="113" y="-33" type="qcurve" smooth="yes"/>
      <point x="312" y="912" type="line"/>
      <point x="319" y="942" type="line"/>
      <point x="384" y="1289" type="line" smooth="yes"/>
      <point x="416" y="1462"/>
      <point x="585" y="1616"/>
      <point x="684" y="1616" type="qcurve" smooth="yes"/>
      <point x="779" y="1616"/>
      <point x="911" y="1522"/>
      <point x="911" y="1469" type="qcurve" smooth="yes"/>
      <point x="911" y="1439"/>
      <point x="888" y="1389"/>
      <point x="856" y="1389" type="qcurve" smooth="yes"/>
      <point x="827" y="1389"/>
      <point x="786" y="1415"/>
      <point x="767" y="1433" type="qcurve" smooth="yes"/>
      <point x="744" y="1455"/>
      <point x="683" y="1511"/>
      <point x="650" y="1511" type="qcurve" smooth="yes"/>
      <point x="592" y="1511"/>
      <point x="536" y="1396"/>
      <point x="509" y="1281" type="qcurve" smooth="yes"/>
      <point x="438" y="936" type="line"/>
      <point x="436" y="920" type="line"/>
      <point x="261" y="82" type="line" smooth="yes"/>
      <point x="197" y="-223"/>
      <point x="-43" y="-474"/>
      <point x="-232" y="-474" type="qcurve"/>
    </contour>
    <contour>
      <point x="35" y="897" type="line"/>
      <point x="29" y="969" type="line"/>
      <point x="358" y="992" type="line"/>
      <point x="802" y="988" type="line"/>
      <point x="783" y="903" type="line"/>
      <point x="385" y="879" type="line"/>
      <point x="378" y="887" type="line"/>
    </contour>
  </outline>
</glyph>
<glyph name="g" format="2">
  <advance width="1555"/>
  <unicode hex="0067"/>
  <outline>
    <contour>
      <point x="2" y="327" type="qcurve" smooth="yes"/>
      <point x="2" y="622"/>
      <point x="549" y="1067"/>
      <point x="891" y="1067.0" type="qcurve" smooth="yes"/>
      <point x="1017" y="1067"/>
      <point x="1229" y="990"/>
      <point x="1269" y="956" type="qcurve"/>
      <point x="1331" y="1065" type="line"/>
      <point x="1385" y="1065" type="line"/>
      <point x="1387" y="941" type="line"/>
      <point x="1260" y="502" type="line" smooth="yes"/>
      <point x="1205" y="312"/>
      <point x="1162" y="121"/>
      <point x="1127" y="-7" type="qcurve" smooth="yes"/>
      <point x="1056" y="-266"/>
      <point x="646" y="-484"/>
      <point x="326" y="-484" type="qcurve"/>
      <point x="101" y="-423" type="line"/>
      <point x="117" y="-361" type="line"/>
      <point x="416" y="-361.0" type="line" smooth="yes"/>
      <point x="653" y="-361.0"/>
      <point x="961" y="-196"/>
      <point x="1015" y="-8" type="qcurve" smooth="yes"/>
      <point x="1064" y="166" type="line"/>
      <point x="988" y="98"/>
      <point x="651" y="-30"/>
      <point x="442" y="-30" type="qcurve" smooth="yes"/>
      <point x="212" y="-30"/>
      <point x="2" y="159"/>
    </contour>
    <contour>
      <point x="119" y="329" type="qcurve" smooth="yes"/>
      <point x="119" y="201"/>
      <point x="299" y="77"/>
      <point x="502" y="77" type="qcurve" smooth="yes"/>
      <point x="703" y="77.0"/>
      <point x="1079" y="251"/>
      <point x="1125" y="419" type="qcurve" smooth="yes"/>
      <point x="1242" y="851" type="line"/>
      <point x="1213" y="885"/>
      <point x="1014" y="960"/>
      <point x="881" y="960" type="qcurve" smooth="yes"/>
      <point x="568" y="960"/>
      <point x="119" y="561"/>
    </contour>
  </outline>
</glyph>
<glyph name="h" format="2">
  <advance width="1668"/>
  <unicode hex="0068"/>
  <outline>
    <contour>
      <point x="183" y="-35" type="line"/>
      <point x="60" y="74" type="line"/>
      <point x="208" y="584" type="line"/>
      <point x="426" y="1475" type="line"/>
      <point x="164" y="1484" type="line"/>
      <point x="174" y="1560" type="line"/>
      <point x="538" y="1635" type="line"/>
      <point x="574" y="1593" type="line"/>
      <point x="343" y="657" type="line"/>
      <point x="208" y="145" type="line"/>
      <point x="335" y="50" type="line"/>
    </contour>
    <contour>
      <point x="1147" y="-33" type="line"/>
      <point x="1033" y="71" type="line"/>
      <point x="1231" y="746" type="line" smooth="yes"/>
      <point x="1257" y="836"/>
      <point x="1173" y="936"/>
      <point x="1069" y="936" type="qcurve" smooth="yes"/>
      <point x="909" y="936"/>
      <point x="509" y="752"/>
      <point x="304" y="541" type="qcurve"/>
      <point x="302" y="652" type="line"/>
      <point x="552" y="884"/>
      <point x="966" y="1062"/>
      <point x="1138" y="1062" type="qcurve" smooth="yes"/>
      <point x="1281" y="1062"/>
      <point x="1392" y="863"/>
      <point x="1333" y="661" type="qcurve" smooth="yes"/>
      <point x="1167" y="93" type="line"/>
      <point x="1465" y="122" type="line"/>
      <point x="1463" y="37" type="line"/>
    </contour>
  </outline>
</glyph>
<glyph name="i" format="2">
  <advance width="748"/>
  <unicode hex="0069"/>
  <outline>
    <contour>
      <point x="213" y="-35" type="line"/>
      <point x="98" y="71" type="line"/>
      <point x="230" y="526" type="line"/>
      <point x="342" y="930" type="line"/>
      <point x="39" y="904" type="line"/>
      <point x="55" y="998" type="line"/>
      <point x="404" y="1052" type="line"/>
      <point x="465" y="1052" type="line"/>
      <point x="482" y="974" type="line"/>
      <point x="423" y="792" type="line"/>
      <point x="226" y="93" type="line"/>
      <point x="547" y="123" type="line"/>
      <point x="547" y="40" type="line"/>
    </contour>
    <contour>
      <point x="356" y="1365" type="qcurve" smooth="yes"/>
      <point x="361" y="1418"/>
      <point x="442" y="1492"/>
      <point x="489" y="1492" type="qcurve" smooth="yes"/>
      <point x="541" y="1492"/>
      <point x="608" y="1414"/>
      <point x="603" y="1365" type="qcurve" smooth="yes"/>
      <point x="596" y="1314"/>
      <point x="514" y="1237"/>
      <point x="467" y="1237" type="qcurve" smooth="yes"/>
      <point x="425" y="1237"/>
      <point x="351" y="1309"/>
    </contour>
  </outline>
</glyph>
<glyph name="j" format="2">
  <advance width="723"/>
  <unicode hex="006A"/>
  <outline>
    <contour>
      <point x="355" y="930" type="qcurve"/>
      <point x="52" y="904" type="line"/>
      <point x="68" y="998" type="line"/>
      <point x="417" y="1052" type="line"/>
      <point x="478" y="1052" type="line"/>
      <point x="495" y="972" type="line"/>
      <point x="437" y="785" type="line"/>
      <point x="244" y="5" type="line" smooth="yes"/>
      <point x="184" y="-239"/>
      <point x="-78" y="-475"/>
      <point x="-231" y="-475" type="qcurve"/>
      <point x="-447" y="-425" type="line"/>
      <point x="-431" y="-363" type="line"/>
      <point x="-236" y="-363" type="line" smooth="yes"/>
      <point x="-100" y="-363"/>
      <point x="83" y="-167"/>
      <point x="145" y="86" type="qcurve" smooth="yes"/>
      <point x="196" y="294"/>
      <point x="325" y="798"/>
    </contour>
    <contour>
      <point x="371" y="1363" type="qcurve" smooth="yes"/>
      <point x="378" y="1421"/>
      <point x="449" y="1493"/>
      <point x="507" y="1493" type="qcurve" smooth="yes"/>
      <point x="559" y="1493"/>
      <point x="622" y="1417"/>
      <point x="616" y="1363" type="qcurve" smooth="yes"/>
      <point x="608" y="1307"/>
      <point x="537" y="1236"/>
      <point x="480" y="1236" type="qcurve" smooth="yes"/>
      <point x="428" y="1236"/>
      <point x="365" y="1312"/>
    </contour>
  </outline>
</glyph>
<glyph name="k" format="2">
  <advance width="1469"/>
  <unicode hex="006B"/>
  <outline>
    <contour>
      <point x="183" y="-38" type="line"/>
      <point x="58" y="71" type="line"/>
      <point x="206" y="586" type="line"/>
      <point x="425" y="1474" type="line"/>
      <point x="161" y="1480" type="line"/>
      <point x="173" y="1558" type="line"/>
      <point x="534" y="1634" type="line"/>
      <point x="573" y="1591" type="line"/>
      <point x="368" y="738" type="line"/>
      <point x="457" y="861"/>
      <point x="790" y="1063"/>
      <point x="930" y="1063" type="qcurve" smooth="yes"/>
      <point x="1070" y="1063"/>
      <point x="1228" y="923"/>
      <point x="1242" y="808" type="qcurve" smooth="yes"/>
      <point x="1247" y="767" type="line"/>
      <point x="1213" y="716" type="line"/>
      <point x="904" y="570" type="line"/>
      <point x="1143" y="120" type="line"/>
      <point x="1387" y="123" type="line"/>
      <point x="1395" y="47" type="line"/>
      <point x="1161" y="-7" type="line" smooth="yes"/>
      <point x="1119" y="-17"/>
      <point x="1058" y="20"/>
      <point x="1018" y="98" type="qcurve"/>
      <point x="796" y="518" type="line"/>
      <point x="174" y="220" type="line"/>
      <point x="194" y="324" type="line"/>
      <point x="1116" y="762" type="line"/>
      <point x="1108" y="840"/>
      <point x="998" y="940"/>
      <point x="871" y="940" type="qcurve" smooth="yes"/>
      <point x="718" y="940"/>
      <point x="410" y="724"/>
      <point x="323" y="587" type="qcurve"/>
      <point x="308" y="548" type="line"/>
      <point x="200" y="144" type="line"/>
      <point x="325" y="51" type="line"/>
    </contour>
  </outline>
</glyph>
<glyph name="l" format="2">
  <advance width="721"/>
  <unicode hex="006C"/>
  <outline>
    <contour>
      <point x="191" y="-34" type="line"/>
      <point x="77" y="67" type="line"/>
      <point x="208" y="587" type="line"/>
      <point x="423" y="1475" type="line"/>
      <point x="145" y="1486" type="line"/>
      <point x="155" y="1562" type="line"/>
      <point x="533" y="1636" type="line"/>
      <point x="569" y="1595" type="line"/>
      <point x="322" y="568" type="line"/>
      <point x="209" y="93" type="line"/>
      <point x="540" y="122" type="line"/>
      <point x="538" y="34" type="line"/>
    </contour>
  </outline>
</glyph>
<glyph name="m" format="2">
  <advance width="2621"/>
  <unicode hex="006D"/>
  <outline>
    <contour>
      <point x="206" y="-34" type="line"/>
      <point x="88" y="77" type="line"/>
      <point x="267" y="635" type="line"/>
      <point x="311" y="921" type="line"/>
      <point x="39" y="902" type="line"/>
      <point x="57" y="999" type="line"/>
      <point x="376" y="1050" type="line"/>
      <point x="439" y="1050" type="line"/>
      <point x="400" y="691" type="line"/>
      <point x="381" y="591" type="line"/>
      <point x="238" y="144" type="line"/>
      <point x="367" y="52" type="line"/>
    </contour>
    <contour>
      <point x="1141" y="-23" type="line"/>
      <point x="1035" y="77" type="line"/>
      <point x="1232" y="725" type="line" smooth="yes"/>
      <point x="1261" y="820"/>
      <point x="1178" y="941"/>
      <point x="1061" y="941" type="qcurve" smooth="yes"/>
      <point x="910" y="941"/>
      <point x="535" y="750"/>
      <point x="330" y="542" type="qcurve"/>
      <point x="328" y="651" type="line"/>
      <point x="578" y="884"/>
      <point x="942" y="1062"/>
      <point x="1115" y="1062" type="qcurve" smooth="yes"/>
      <point x="1256" y="1062"/>
      <point x="1399" y="865"/>
      <point x="1338" y="659" type="qcurve" smooth="yes"/>
      <point x="1183" y="136" type="line"/>
      <point x="1302" y="50" type="line"/>
    </contour>
    <contour>
      <point x="2104" y="-36" type="line"/>
      <point x="1985" y="65" type="line"/>
      <point x="2185" y="746" type="line" smooth="yes"/>
      <point x="2211" y="835"/>
      <point x="2126" y="936"/>
      <point x="2019" y="936" type="qcurve" smooth="yes"/>
      <point x="1859" y="936"/>
      <point x="1426" y="715"/>
      <point x="1305" y="553" type="qcurve"/>
      <point x="1303" y="680" type="line"/>
      <point x="1467" y="847"/>
      <point x="1907" y="1062"/>
      <point x="2089" y="1062" type="qcurve" smooth="yes"/>
      <point x="2232" y="1062"/>
      <point x="2343" y="862"/>
      <point x="2285" y="661" type="qcurve" smooth="yes"/>
      <point x="2120" y="91" type="line"/>
      <point x="2418" y="120" type="line"/>
      <point x="2416" y="35" type="line"/>
    </contour>
  </outline>
</glyph>
<glyph name="n" format="2">
  <advance width="1694"/>
  <unicode hex="006E"/>
  <outline>
    <contour>
      <point x="206" y="-35" type="line"/>
      <point x="88" y="77" type="line"/>
      <point x="267" y="635" type="line"/>
      <point x="311" y="921" type="line"/>
      <point x="39" y="902" type="line"/>
      <point x="57" y="999" type="line"/>
      <point x="376" y="1050" type="line"/>
      <point x="438" y="1050" type="line"/>
      <point x="401" y="691" type="line"/>
      <point x="379" y="591" type="line"/>
      <point x="237" y="144" type="line"/>
      <point x="367" y="51" type="line"/>
    </contour>
    <contour>
      <point x="1173" y="-33" type="line"/>
      <point x="1059" y="71" type="line"/>
      <point x="1257" y="746" type="line" smooth="yes"/>
      <point x="1283" y="836"/>
      <point x="1199" y="936"/>
      <point x="1095" y="936" type="qcurve" smooth="yes"/>
      <point x="935" y="936"/>
      <point x="535" y="752"/>
      <point x="330" y="541" type="qcurve"/>
      <point x="328" y="652" type="line"/>
      <point x="578" y="884"/>
      <point x="992" y="1062"/>
      <point x="1164" y="1062" type="qcurve" smooth="yes"/>
      <point x="1307" y="1062"/>
      <point x="1418" y="863"/>
      <point x="1359" y="661" type="qcurve" smooth="yes"/>
      <point x="1193" y="93" type="line"/>
      <point x="1491" y="122" type="line"/>
      <point x="1489" y="37" type="line"/>
    </contour>
  </outline>
</glyph>
<glyph name="o" format="2">
  <advance width="1637"/>
  <unicode hex="006F"/>
  <outline>
    <contour>
      <point x="5" y="576" type="qcurve" smooth="yes"/>
      <point x="52" y="821"/>
      <point x="504" y="1096"/>
      <point x="828" y="1080" type="qcurve" smooth="yes"/>
      <point x="1152" y="1063"/>
      <point x="1480" y="725"/>
      <point x="1438" y="481" type="qcurve" smooth="yes"/>
      <point x="1399" y="249"/>
      <point x="943" y="-42"/>
      <point x="616" y="-26" type="qcurve" smooth="yes"/>
      <point x="292" y="-10"/>
      <point x="-40" y="326"/>
    </contour>
    <contour>
      <point x="134" y="578" type="qcurve" smooth="yes"/>
      <point x="89" y="356"/>
      <point x="381" y="83"/>
      <point x="636" y="72" type="qcurve" smooth="yes"/>
      <point x="914" y="59"/>
      <point x="1283" y="312"/>
      <point x="1314" y="498" type="qcurve" smooth="yes"/>
      <point x="1349" y="705"/>
      <point x="1069" y="958"/>
      <point x="809" y="972" type="qcurve" smooth="yes"/>
      <point x="555" y="985"/>
      <point x="175" y="784"/>
    </contour>
  </outline>
</glyph>
<glyph name="p" format="2">
  <advance width="1544"/>
  <unicode hex="0070"/>
  <outline>
    <contour>
      <point x="-77" y="-397" type="line"/>
      <point x="180" y="487" type="line"/>
      <point x="247" y="782" type="line"/>
      <point x="148" y="1012" type="line"/>
      <point x="200" y="1060" type="line"/>
      <point x="273" y="1060" type="line"/>
      <point x="354" y="806" type="line"/>
      <point x="475" y="904"/>
      <point x="848" y="1062"/>
      <point x="1042" y="1062" type="qcurve" smooth="yes"/>
      <point x="1200" y="1062"/>
      <point x="1384" y="882"/>
      <point x="1384" y="735" type="qcurve" smooth="yes"/>
      <point x="1384" y="416"/>
      <point x="849" y="-8"/>
      <point x="510" y="-8" type="qcurve" smooth="yes"/>
      <point x="434" y="-8"/>
      <point x="235" y="37"/>
      <point x="183" y="63" type="qcurve"/>
      <point x="65" y="-350" type="line"/>
      <point x="303" y="-399" type="line"/>
      <point x="282" y="-480" type="line"/>
      <point x="41" y="-497" type="line"/>
    </contour>
    <contour>
      <point x="226" y="237" type="line" smooth="yes"/>
      <point x="210" y="181"/>
      <point x="374" y="99"/>
      <point x="517" y="99" type="qcurve" smooth="yes"/>
      <point x="809" y="99"/>
      <point x="1260" y="451"/>
      <point x="1260" y="695" type="qcurve" smooth="yes"/>
      <point x="1260" y="819"/>
      <point x="1124" y="948"/>
      <point x="999" y="946" type="qcurve" smooth="yes"/>
      <point x="844" y="944"/>
      <point x="464" y="780"/>
      <point x="356" y="699" type="qcurve"/>
      <point x="291" y="472" type="line"/>
    </contour>
  </outline>
</glyph>
<glyph name="q" format="2">
  <advance width="1698"/>
  <unicode hex="0071"/>
  <outline>
    <contour>
      <point x="34.0" y="247.0" type="qcurve" smooth="yes"/>
      <point x="26.0" y="582.0"/>
      <point x="601.0" y="1064.0"/>
      <point x="969.0" y="1064.0" type="qcurve" smooth="yes"/>
      <point x="1082.0" y="1064.0"/>
      <point x="1278.0" y="1033.0"/>
      <point x="1330.0" y="994.0" type="qcurve"/>
      <point x="1352.0" y="1068.0" type="line"/>
      <point x="1406.0" y="1068.0" type="line"/>
      <point x="1384.0" y="820.0" type="line"/>
      <point x="1297.0" y="447.0" type="line"/>
      <point x="1137.0" y="-326.0" type="line"/>
      <point x="1339.0" y="-374.0" type="line"/>
      <point x="1319.0" y="-446.0" type="line"/>
      <point x="1088.0" y="-464.0" type="line"/>
      <point x="989.0" y="-378.0" type="line"/>
      <point x="1113.0" y="178.0" type="line"/>
      <point x="1094.0" y="184.0" type="line"/>
      <point x="961.0" y="87.0"/>
      <point x="642.0" y="-29.0"/>
      <point x="430.0" y="-29.0" type="qcurve" smooth="yes"/>
      <point x="252.0" y="-29.0"/>
      <point x="38.0" y="100.0"/>
    </contour>
    <contour>
      <point x="177.0" y="275.0" type="qcurve" smooth="yes"/>
      <point x="179.0" y="145.0"/>
      <point x="340.0" y="60.0"/>
      <point x="466.0" y="60.0" type="qcurve" smooth="yes"/>
      <point x="687.0" y="60.0"/>
      <point x="1124.0" y="252.0"/>
      <point x="1173.0" y="439.0" type="qcurve" smooth="yes"/>
      <point x="1277.0" y="872.0" type="line"/>
      <point x="1271.0" y="901.0"/>
      <point x="1104.0" y="953.0"/>
      <point x="925.0" y="953.0" type="qcurve" smooth="yes"/>
      <point x="635.0" y="953.0"/>
      <point x="173.0" y="538.0"/>
    </contour>
  </outline>
</glyph>
<glyph name="r" format="2">
  <advance width="1244"/>
  <unicode hex="0072"/>
  <outline>
    <contour>
      <point x="183" y="-32" type="line"/>
      <point x="87" y="64" type="line"/>
      <point x="258" y="630" type="line"/>
      <point x="302" y="922" type="line"/>
      <point x="28" y="901" type="line"/>
      <point x="49" y="997" type="line"/>
      <point x="372" y="1049" type="line"/>
      <point x="438" y="1049" type="line"/>
      <point x="430" y="950" type="line"/>
      <point x="366" y="587" type="line"/>
      <point x="231" y="105" type="line"/>
      <point x="534" y="120" type="line"/>
      <point x="522" y="49" type="line"/>
    </contour>
    <contour>
      <point x="1020" y="659" type="line"/>
      <point x="1020" y="931" type="line"/>
      <point x="865" y="931"/>
      <point x="508" y="760"/>
      <point x="344" y="600" type="qcurve"/>
      <point x="343" y="684" type="line"/>
      <point x="494" y="849"/>
      <point x="851" y="1058"/>
      <point x="1006" y="1058" type="qcurve" smooth="yes"/>
      <point x="1101" y="1058"/>
      <point x="1181" y="967"/>
      <point x="1181" y="863" type="qcurve" smooth="yes"/>
      <point x="1181" y="770"/>
      <point x="1102" y="663"/>
      <point x="1065" y="661" type="qcurve" smooth="yes"/>
    </contour>
  </outline>
</glyph>
<glyph name="s" format="2">
  <advance width="1252"/>
  <unicode hex="0073"/>
  <outline>
    <contour>
      <point x="-25" y="184" type="qcurve" smooth="yes"/>
      <point x="-25" y="249"/>
      <point x="61" y="319"/>
      <point x="111" y="319" type="qcurve" smooth="yes"/>
      <point x="138" y="319" type="line"/>
      <point x="138" y="199" type="line" smooth="yes"/>
      <point x="138" y="154"/>
      <point x="341" y="66"/>
      <point x="519" y="66" type="qcurve" smooth="yes"/>
      <point x="731" y="66"/>
      <point x="976" y="204"/>
      <point x="976" y="287" type="qcurve" smooth="yes"/>
      <point x="976" y="363"/>
      <point x="840" y="452"/>
      <point x="581" y="498" type="qcurve" smooth="yes"/>
      <point x="318" y="545"/>
      <point x="129" y="684"/>
      <point x="136" y="803" type="qcurve" smooth="yes"/>
      <point x="144" y="934"/>
      <point x="408" y="1079"/>
      <point x="651" y="1079" type="qcurve" smooth="yes"/>
      <point x="878" y="1079"/>
      <point x="1141" y="978"/>
      <point x="1141" y="896" type="qcurve" smooth="yes"/>
      <point x="1141" y="824"/>
      <point x="1075" y="751"/>
      <point x="1036" y="751" type="qcurve" smooth="yes"/>
      <point x="995" y="751" type="line"/>
      <point x="995" y="870" type="line" smooth="yes"/>
      <point x="995" y="920"/>
      <point x="818" y="965"/>
      <point x="635" y="965" type="qcurve" smooth="yes"/>
      <point x="451" y="965"/>
      <point x="268" y="894"/>
      <point x="264" y="815" type="qcurve" smooth="yes"/>
      <point x="260" y="734"/>
      <point x="417" y="643"/>
      <point x="658" y="604" type="qcurve" smooth="yes"/>
      <point x="902" y="565"/>
      <point x="1101" y="423"/>
      <point x="1101" y="312" type="qcurve" smooth="yes"/>
      <point x="1101" y="168"/>
      <point x="796" y="-28"/>
      <point x="505" y="-28" type="qcurve" smooth="yes"/>
      <point x="262" y="-28"/>
      <point x="-25" y="84"/>
    </contour>
  </outline>
</glyph>
<glyph name="t" format="2">
  <advance width="760"/>
  <unicode hex="0074"/>
  <outline>
    <contour>
      <point x="179.0" y="-25.0" type="line"/>
      <point x="116.0" y="-13.0" type="line"/>
      <point x="201.0" y="538.0" type="line"/>
      <point x="254.0" y="868.0" type="line"/>
      <point x="73.0" y="880.0" type="line"/>
      <point x="86.0" y="966.0" type="line"/>
      <point x="291.0" y="986.0"/>
      <point x="408.0" y="1193.0"/>
      <point x="439.0" y="1345.0" type="qcurve"/>
      <point x="502.0" y="1345.0" type="line"/>
      <point x="519.0" y="1294.0" type="line"/>
      <point x="320.0" y="510.0" type="line"/>
      <point x="251.0" y="105.0" type="line"/>
      <point x="536.0" y="117.0" type="line"/>
      <point x="536.0" y="37.0" type="line"/>
    </contour>
    <contour>
      <point x="343.0" y="884.0" type="line"/>
      <point x="376.0" y="978.0" type="line"/>
      <point x="726.0" y="978.0" type="line"/>
      <point x="723.0" y="910.0" type="line"/>
    </contour>
  </outline>
</glyph>
<glyph name="u" format="2">
  <advance width="1694"/>
  <unicode hex="0075"/>
  <outline>
    <contour>
      <point x="1158.0" y="-33.0" type="line"/>
      <point x="1064.0" y="55.0" type="line"/>
      <point x="1108.0" y="279.0" type="line"/>
      <point x="1285.0" y="931.0" type="line"/>
      <point x="1230.0" y="1039.0" type="line"/>
      <point x="1385.0" y="1078.0" type="line"/>
      <point x="1429.0" y="974.0" type="line"/>
      <point x="1240.0" y="333.0" type="line"/>
      <point x="1194.0" y="94.0" type="line"/>
      <point x="1471.0" y="122.0" type="line"/>
      <point x="1471.0" y="38.0" type="line"/>
    </contour>
    <contour>
      <point x="146.0" y="276.0" type="qcurve" smooth="yes"/>
      <point x="296.0" y="914.0" type="line"/>
      <point x="31.0" y="901.0" type="line"/>
      <point x="47.0" y="996.0" type="line"/>
      <point x="333.0" y="1050.0" type="line"/>
      <point x="424.0" y="1050.0" type="line"/>
      <point x="432.0" y="979.0" type="line"/>
      <point x="263.0" y="263.0" type="line" smooth="yes"/>
      <point x="242" y="174"/>
      <point x="326.0" y="91.0"/>
      <point x="438" y="91.0" type="qcurve" smooth="yes"/>
      <point x="608.0" y="91.0"/>
      <point x="1039.0" y="261.0"/>
      <point x="1154.0" y="360.0" type="qcurve"/>
      <point x="1200.0" y="297.0" type="line"/>
      <point x="1069.0" y="186.0"/>
      <point x="649" y="-19.0"/>
      <point x="434" y="-19" type="qcurve" smooth="yes"/>
      <point x="264" y="-19"/>
      <point x="110" y="123"/>
    </contour>
  </outline>
</glyph>
<glyph name="v" format="2">
  <advance width="1418"/>
  <unicode hex="0076"/>
  <outline>
    <contour>
      <point x="-39.0" y="916.0" type="line"/>
      <point x="-39.0" y="1005.0" type="line"/>
      <point x="191.0" y="1047.0" type="line"/>
      <point x="300.0" y="1047.0" type="line"/>
      <point x="347.0" y="578.0" type="line"/>
      <point x="394.0" y="87.0" type="line"/>
      <point x="680.0" y="296.0"/>
      <point x="1125.0" y="788.0"/>
      <point x="1130.0" y="907.0" type="qcurve" smooth="yes"/>
      <point x="1134.0" y="947.0"/>
      <point x="1105.0" y="973.0"/>
      <point x="1105.0" y="1015.0" type="qcurve" smooth="yes"/>
      <point x="1105.0" y="1050.0"/>
      <point x="1161.0" y="1100.0"/>
      <point x="1215.0" y="1100.0" type="qcurve" smooth="yes"/>
      <point x="1285.0" y="1100.0"/>
      <point x="1349.0" y="1021.217606734135"/>
      <point x="1343.0" y="963.0" type="qcurve" smooth="yes"/>
      <point x="1334.0" y="840.0"/>
      <point x="901.0" y="345.0"/>
      <point x="389.0" y="-40.0" type="qcurve"/>
      <point x="308.0" y="-43.0" type="line"/>
      <point x="226.0" y="530.0" type="line"/>
      <point x="171.0" y="919.0" type="line"/>
    </contour>
  </outline>
</glyph>
<glyph name="w" format="2">
  <advance width="2103"/>
  <unicode hex="0077"/>
  <outline>
    <contour>
      <point x="-41" y="912" type="line"/>
      <point x="-41" y="1001" type="line"/>
      <point x="192" y="1050" type="line"/>
      <point x="281" y="1050" type="line"/>
      <point x="337" y="555" type="line"/>
      <point x="389" y="106" type="line"/>
      <point x="517" y="208"/>
      <point x="880" y="541"/>
      <point x="971" y="648" type="qcurve"/>
      <point x="1004" y="558" type="line"/>
      <point x="903" y="447"/>
      <point x="539" y="117"/>
      <point x="358" y="-36" type="qcurve"/>
      <point x="280" y="-16" type="line"/>
      <point x="216" y="541" type="line"/>
      <point x="173" y="918" type="line"/>
    </contour>
    <contour>
      <point x="702" y="1013" type="line"/>
      <point x="926" y="1050" type="line"/>
      <point x="1004" y="1050" type="line"/>
      <point x="1053" y="554" type="line"/>
      <point x="1099" y="90" type="line"/>
      <point x="1379" y="307"/>
      <point x="1813" y="719"/>
      <point x="1823" y="810" type="qcurve" smooth="yes"/>
      <point x="1827" y="846"/>
      <point x="1774" y="920"/>
      <point x="1778" y="961" type="qcurve" smooth="yes"/>
      <point x="1783" y="1009"/>
      <point x="1857" y="1092"/>
      <point x="1915" y="1092" type="qcurve" smooth="yes"/>
      <point x="1970" y="1092"/>
      <point x="2031" y="1003"/>
      <point x="2028" y="951" type="qcurve" smooth="yes"/>
      <point x="2021" y="829"/>
      <point x="1528" y="297"/>
      <point x="1079" y="-37" type="qcurve"/>
      <point x="999" y="-17" type="line"/>
      <point x="935" y="544" type="line"/>
      <point x="892" y="915" type="line"/>
      <point x="705" y="915" type="line"/>
    </contour>
  </outline>
</glyph>
<glyph name="x" format="2">
  <advance width="1520"/>
  <unicode hex="0078"/>
  <outline>
    <contour>
      <point x="231.0" y="932.0" type="line"/>
      <point x="206.0" y="982.0" type="line"/>
      <point x="478.0" y="1063.0" type="line"/>
      <point x="603.0" y="1044.0" type="line"/>
      <point x="789.0" y="614.0" type="line"/>
      <point x="1008.0" y="99.0" type="line"/>
      <point x="1249.0" y="116.0" type="line"/>
      <point x="1266.0" y="45.0" type="line"/>
      <point x="994.0" y="-30.0" type="line"/>
      <point x="909.0" y="16.0" type="line"/>
      <point x="707.0" y="458.0" type="line"/>
      <point x="495.0" y="946.0" type="line"/>
    </contour>
    <contour>
      <point x="-148.0" y="73.0" type="line"/>
      <point x="-108.0" y="117.0" type="line"/>
      <point x="117.0" y="117.0" type="line" smooth="yes"/>
      <point x="210.0" y="117.0"/>
      <point x="538.0" y="389.0"/>
      <point x="716.0" y="571.0" type="qcurve" smooth="yes"/>
      <point x="894.0" y="757.0"/>
      <point x="1254.0" y="1071.0"/>
      <point x="1369.0" y="1071.0" type="qcurve" smooth="yes"/>
      <point x="1445.0" y="1071.0"/>
      <point x="1528.0" y="978.0"/>
      <point x="1526.0" y="906.0" type="qcurve" smooth="yes"/>
      <point x="1523.0" y="853.0"/>
      <point x="1421.0" y="764.0"/>
      <point x="1348.0" y="762.0" type="qcurve"/>
      <point x="1329.0" y="774.0" type="line"/>
      <point x="1330.0" y="860.0" type="line"/>
      <point x="1331.0" y="868.0"/>
      <point x="1315.0" y="886.0"/>
      <point x="1295.0" y="886.0" type="qcurve" smooth="yes"/>
      <point x="1230.0" y="886.0"/>
      <point x="934.0" y="672.0"/>
      <point x="761.0" y="494.0" type="qcurve" smooth="yes"/>
      <point x="578.0" y="304.0"/>
      <point x="234.0" y="-28.0"/>
      <point x="72.0" y="-28.0" type="qcurve"/>
    </contour>
  </outline>
</glyph>
<glyph name="y" format="2">
  <advance width="1419"/>
  <unicode hex="0079"/>
  <outline>
    <contour>
      <point x="-491" y="-429" type="line"/>
      <point x="-476" y="-362" type="line"/>
      <point x="-233" y="-360" type="line" smooth="yes"/>
      <point x="-120" y="-359"/>
      <point x="217" y="-133"/>
      <point x="298" y="-58" type="qcurve" smooth="yes"/>
      <point x="361" y="0" type="line"/>
      <point x="361" y="1" type="line"/>
      <point x="296" y="248"/>
      <point x="182" y="744"/>
      <point x="136" y="926" type="qcurve"/>
      <point x="-76" y="917" type="line"/>
      <point x="-74" y="1003" type="line"/>
      <point x="144" y="1050" type="line"/>
      <point x="223" y="1050" type="line"/>
      <point x="256" y="986" type="line"/>
      <point x="457" y="83" type="line"/>
      <point x="679" y="282"/>
      <point x="1143" y="738"/>
      <point x="1143" y="807" type="qcurve" smooth="yes"/>
      <point x="1143" y="859"/>
      <point x="1088" y="917"/>
      <point x="1091" y="971" type="qcurve" smooth="yes"/>
      <point x="1093" y="1012"/>
      <point x="1164" y="1092"/>
      <point x="1232" y="1091" type="qcurve" smooth="yes"/>
      <point x="1286" y="1090"/>
      <point x="1344" y="1013"/>
      <point x="1344" y="952" type="qcurve" smooth="yes"/>
      <point x="1344" y="826"/>
      <point x="836" y="290"/>
      <point x="504" y="0" type="qcurve" smooth="yes"/>
      <point x="449" y="-48" type="line" smooth="yes"/>
      <point x="253" y="-219"/>
      <point x="-112" y="-475"/>
      <point x="-279" y="-475" type="qcurve"/>
    </contour>
  </outline>
</glyph>
<glyph name="z" format="2">
  <advance width="1276"/>
  <unicode hex="007A"/>
  <outline>
    <contour>
      <point x="-78.0" y="-20.0" type="line"/>
      <point x="-149.0" y="62.0" type="line"/>
      <point x="13.0" y="170.0"/>
      <point x="398.0" y="462.0"/>
      <point x="501.0" y="544.0" type="qcurve" smooth="yes"/>
      <point x="593" y="617"/>
      <point x="915.0" y="863.0"/>
      <point x="1013.0" y="934.0" type="qcurve"/>
      <point x="262.0" y="934.0" type="line"/>
      <point x="148.0" y="746.0" type="line"/>
      <point x="61.0" y="746.0" type="line"/>
      <point x="145.0" y="1020.0" type="line"/>
      <point x="208.0" y="1050.0" type="line"/>
      <point x="1191.0" y="1050.0" type="line"/>
      <point x="1209.0" y="973.0" type="line"/>
      <point x="1104.0" y="884.0"/>
      <point x="760" y="605"/>
      <point x="624.0" y="499.0" type="qcurve" smooth="yes"/>
      <point x="506" y="407"/>
      <point x="234.0" y="224.0"/>
      <point x="149.0" y="166.0" type="qcurve"/>
      <point x="960.0" y="116.0" type="line"/>
      <point x="1117.0" y="304.0" type="line"/>
      <point x="1181.0" y="285.0" type="line"/>
      <point x="1049.0" y="-3.0" type="line"/>
      <point x="996.0" y="-22.0" type="line"/>
      <point x="34.0" y="63.0" type="line"/>
    </contour>
  </outline>
</glyph>
<glyph name="bar" format="2">
  <advance width="662"/>
  <unicode hex="007C"/>
  <outline>
    <contour>
      <point x="-1.0" y="-540.0" type="line"/>
      <point x="105.0" y="-58.0" type="line"/>
      <point x="167.0" y="250.0" type="line"/>
      <point x="277.0" y="830.0" type="line"/>
      <point x="337.0" y="1138.0" type="line"/>
      <point x="394.0" y="1530.0" type="line"/>
      <point x="527.0" y="1550.0" type="line"/>
      <point x="435.0" y="1138.0" type="line"/>
      <point x="381.0" y="830.0" type="line"/>
      <point x="271.0" y="250.0" type="line"/>
      <point x="203.0" y="-58.0" type="line"/>
      <point x="130.0" y="-535.0" type="line"/>
    </contour>
  </outline>
</glyph>
<glyph name="asciitilde" format="2">
  <advance width="1299"/>
  <unicode hex="007E"/>
  <outline>
    <contour>
      <point x="30" y="621" type="line"/>
      <point x="110" y="714"/>
      <point x="298" y="838"/>
      <point x="386" y="838" type="qcurve"/>
      <point x="824" y="719" type="line"/>
      <point x="903" y="718"/>
      <point x="1024" y="764"/>
      <point x="1083" y="846" type="qcurve"/>
      <point x="1154" y="788" type="line"/>
      <point x="1092" y="693"/>
      <point x="907" y="595"/>
      <point x="794" y="599" type="qcurve"/>
      <point x="359" y="720" type="line"/>
      <point x="305" y="720"/>
      <point x="170" y="639"/>
      <point x="102" y="559" type="qcurve"/>
    </contour>
  </outline>
</glyph>
<glyph name="copyright" format="2">
  <advance width="2253"/>
  <unicode hex="00A9"/>
  <outline>
    <contour>
      <point x="494.0" y="603.0" type="qcurve" smooth="yes"/>
      <point x="494.0" y="829.0"/>
      <point x="837.0" y="1131.0"/>
      <point x="1075.0" y="1131.0" type="qcurve" smooth="yes"/>
      <point x="1178.0" y="1131.0"/>
      <point x="1324.0" y="1080.0"/>
      <point x="1370.0" y="1043.0" type="qcurve"/>
      <point x="1389.0" y="1114.0" type="line"/>
      <point x="1479.0" y="1121.0" type="line"/>
      <point x="1469.0" y="788.0" type="line"/>
      <point x="1388.0" y="770.0" type="line"/>
      <point x="1354.0" y="905.0" type="line"/>
      <point x="1333.0" y="980.0"/>
      <point x="1174.0" y="1045.0"/>
      <point x="1093.0" y="1045.0" type="qcurve" smooth="yes"/>
      <point x="880.0" y="1045.0"/>
      <point x="609.0" y="823.0"/>
      <point x="610.0" y="627.0" type="qcurve" smooth="yes"/>
      <point x="610.0" y="408.0"/>
      <point x="852.0" y="190.0"/>
      <point x="1103.0" y="190.0" type="qcurve" smooth="yes"/>
      <point x="1223.0" y="190.0"/>
      <point x="1404.0" y="264.0"/>
      <point x="1466.0" y="341.0" type="qcurve"/>
      <point x="1526.0" y="286.0" type="line"/>
      <point x="1476.0" y="212.0"/>
      <point x="1253.0" y="89.0"/>
      <point x="1012.0" y="89.0" type="qcurve" smooth="yes"/>
      <point x="816.0" y="89.0"/>
      <point x="494.0" y="352.0"/>
    </contour>
    <contour>
      <point x="2.0" y="675.0" type="qcurve" smooth="yes"/>
      <point x="2.0" y="1061.0"/>
      <point x="555.0" y="1570.0"/>
      <point x="1020.0" y="1570.0" type="qcurve" smooth="yes"/>
      <point x="1482.0" y="1570.0"/>
      <point x="2043.0" y="1097.0"/>
      <point x="2043.0" y="696.0" type="qcurve" smooth="yes"/>
      <point x="2043.0" y="258.0"/>
      <point x="1500.0" y="-243.0"/>
      <point x="1041.0" y="-243.0" type="qcurve" smooth="yes"/>
      <point x="573.0" y="-243.0"/>
      <point x="2.0" y="246.0"/>
    </contour>
    <contour>
      <point x="141.0" y="672.0" type="qcurve" smooth="yes"/>
      <point x="141.0" y="272.0"/>
      <point x="618.0" y="-103.0"/>
      <point x="1035.0" y="-103.0" type="qcurve" smooth="yes"/>
      <point x="1441.0" y="-103.0"/>
      <point x="1904.0" y="280.0"/>
      <point x="1904.0" y="690.0" type="qcurve" smooth="yes"/>
      <point x="1904.0" y="1051.0"/>
      <point x="1461.0" y="1431.0"/>
      <point x="1037.0" y="1431.0" type="qcurve" smooth="yes"/>
      <point x="632.0" y="1431.0"/>
      <point x="141.0" y="1031.0"/>
    </contour>
  </outline>
</glyph>
<glyph name="paragraph" format="2">
  <advance width="1344"/>
  <unicode hex="00B6"/>
  <outline>
    <contour>
      <point x="773.0" y="132.0" type="qcurve" smooth="yes"/>
      <point x="902.0" y="817.0" type="line"/>
      <point x="862.0" y="811.0"/>
      <point x="585.0" y="803.0"/>
      <point x="526.0" y="803.0" type="qcurve" smooth="yes"/>
      <point x="333.0" y="803.0"/>
      <point x="131.0" y="1004.0"/>
      <point x="156.0" y="1170.0" type="qcurve" smooth="yes"/>
      <point x="178.0" y="1314.0"/>
      <point x="378.0" y="1500.0"/>
      <point x="570.0" y="1500.0" type="qcurve" smooth="yes"/>
      <point x="1357.0" y="1500.0" type="line"/>
      <point x="1342.0" y="1414.0" type="line"/>
      <point x="1100.0" y="1410.0" type="line"/>
      <point x="983.0" y="754.0" type="line"/>
      <point x="869.0" y="185.0" type="line"/>
      <point x="947.0" y="100.0"/>
      <point x="900.0" y="-15.0"/>
      <point x="846.0" y="-15.0" type="qcurve" smooth="yes"/>
      <point x="805.0" y="-15.0"/>
      <point x="760.0" y="64.0"/>
    </contour>
    <contour>
      <point x="413.0" y="220.0" type="qcurve" smooth="yes"/>
      <point x="537.0" y="872.0" type="line"/>
      <point x="631.0" y="879.0" type="line"/>
      <point x="514.0" y="250.0" type="line" smooth="yes"/>
      <point x="471.0" y="17.0"/>
      <point x="293.0" y="-283.0"/>
      <point x="164.0" y="-283.0" type="qcurve" smooth="yes"/>
      <point x="44.0" y="-283.0"/>
      <point x="-56.0" y="-189.0"/>
      <point x="-56.0" y="-122.0" type="qcurve" smooth="yes"/>
      <point x="-56.0" y="-62.0"/>
      <point x="14.0" y="28.0"/>
      <point x="67.0" y="40.0" type="qcurve"/>
      <point x="123.0" y="-22.0" type="line"/>
      <point x="117.0" y="-37.0" type="line"/>
      <point x="88.0" y="-37.0"/>
      <point x="53.0" y="-83.0"/>
      <point x="53.0" y="-115.0" type="qcurve" smooth="yes"/>
      <point x="53.0" y="-155.0"/>
      <point x="102.0" y="-193.0"/>
      <point x="151.0" y="-193.0" type="qcurve" smooth="yes"/>
      <point x="212.0" y="-193.0"/>
      <point x="363.0" y="-16.0"/>
    </contour>
  </outline>
</glyph>
<glyph name="periodcentered" format="2">
  <advance width="515"/>
  <unicode hex="00B7"/>
  <outline>
    <contour>
      <point x="113.0" y="705.0" type="qcurve" smooth="yes"/>
      <point x="113.0" y="748.0"/>
      <point x="173.0" y="810.0"/>
      <point x="220.0" y="810.0" type="qcurve" smooth="yes"/>
      <point x="267.0" y="810.0"/>
      <point x="327.0" y="748.0"/>
      <point x="327.0" y="705.0" type="qcurve" smooth="yes"/>
      <point x="327.0" y="664.0"/>
      <point x="267.0" y="602.0"/>
      <point x="220.0" y="602.0" type="qcurve" smooth="yes"/>
      <point x="173.0" y="602.0"/>
      <point x="113.0" y="664.0"/>
    </contour>
  </outline>
</glyph>
<glyph name="ordmasculine" format="2">
  <advance width="1317"/>
  <unicode hex="00BA"/>
  <outline>
    <contour>
      <point x="67.0" y="1098.0" type="qcurve" smooth="yes"/>
      <point x="92.0" y="1280.0"/>
      <point x="432.0" y="1514.0"/>
      <point x="665.0" y="1498.0" type="qcurve" smooth="yes"/>
      <point x="878.0" y="1486.0"/>
      <point x="1108.0" y="1236.0"/>
      <point x="1096.0" y="1047.0" type="qcurve" smooth="yes"/>
      <point x="1084.0" y="865.0"/>
      <point x="737.0" y="626.0"/>
      <point x="503.0" y="641.0" type="qcurve" smooth="yes"/>
      <point x="278.0" y="655.0"/>
      <point x="39.0" y="906.0"/>
    </contour>
    <contour>
      <point x="205.0" y="1099.0" type="qcurve" smooth="yes"/>
      <point x="176.0" y="940.0"/>
      <point x="359.0" y="735.0"/>
      <point x="528.0" y="723.0" type="qcurve" smooth="yes"/>
      <point x="707.0" y="713.0"/>
      <point x="952.0" y="907.0"/>
      <point x="966.0" y="1060.0" type="qcurve" smooth="yes"/>
      <point x="978.0" y="1185.0"/>
      <point x="815.0" y="1408.0"/>
      <point x="645.0" y="1416.0" type="qcurve" smooth="yes"/>
      <point x="456.0" y="1423.0"/>
      <point x="225.0" y="1238.0"/>
    </contour>
  </outline>
</glyph>
<glyph name="multiply" format="2">
  <advance width="1238"/>
  <unicode hex="00D7"/>
  <outline>
    <contour>
      <point x="170.0" y="217.0" type="line"/>
      <point x="110.0" y="276.0" type="line"/>
      <point x="876.0" y="1042.0" type="line"/>
      <point x="936.0" y="983.0" type="line"/>
    </contour>
    <contour>
      <point x="875.0" y="220.0" type="line"/>
      <point x="109.0" y="986.0" type="line"/>
      <point x="167.0" y="1042.0" type="line"/>
      <point x="933.0" y="276.0" type="line"/>
    </contour>
  </outline>
</glyph>
<glyph name="caron" format="2">
  <advance width="1024"/>
  <unicode hex="02C7"/>
  <outline>
    <contour>
      <point x="553.0" y="1204.0" type="qcurve" smooth="yes"/>
      <point x="526.0" y="1204.0"/>
      <point x="488.0" y="1242.0"/>
      <point x="458.0" y="1277.0" type="qcurve" smooth="yes"/>
      <point x="257.0" y="1507.0" type="line"/>
      <point x="300.0" y="1533.0" type="line"/>
      <point x="575.0" y="1330.0" type="line"/>
      <point x="970.0" y="1533.0" type="line"/>
      <point x="992.0" y="1493.0" type="line"/>
      <point x="682.0" y="1277.0" type="line" smooth="yes"/>
      <point x="624.0" y="1236.0"/>
      <point x="581.0" y="1204.0"/>
    </contour>
  </outline>
</glyph>
<glyph name="ring" format="2">
  <advance width="1024"/>
  <unicode hex="02DA"/>
  <outline>
    <contour>
      <point x="301.0" y="1416.0" type="qcurve" smooth="yes"/>
      <point x="301.0" y="1500.0"/>
      <point x="433.0" y="1636.0"/>
      <point x="558.0" y="1636.0" type="qcurve" smooth="yes"/>
      <point x="683.0" y="1636.0"/>
      <point x="814.0" y="1500.0"/>
      <point x="814.0" y="1416.0" type="qcurve" smooth="yes"/>
      <point x="814.0" y="1323.0"/>
      <point x="683.0" y="1196.0"/>
      <point x="558.0" y="1196.0" type="qcurve" smooth="yes"/>
      <point x="433.0" y="1196.0"/>
      <point x="301.0" y="1323.0"/>
    </contour>
    <contour>
      <point x="408.0" y="1416.0" type="qcurve" smooth="yes"/>
      <point x="408.0" y="1359.0"/>
      <point x="495.0" y="1282.0"/>
      <point x="558.0" y="1282.0" type="qcurve" smooth="yes"/>
      <point x="618.0" y="1282.0"/>
      <point x="708.0" y="1361.0"/>
      <point x="708.0" y="1416.0" type="qcurve" smooth="yes"/>
      <point x="708.0" y="1473.0"/>
      <point x="621.0" y="1550.0"/>
      <point x="558.0" y="1550.0" type="qcurve" smooth="yes"/>
      <point x="496.0" y="1550.0"/>
      <point x="408.0" y="1469.0"/>
    </contour>
  </outline>
</glyph>
<glyph name="guilsinglright" format="2">
  <advance width="1115"/>
  <unicode hex="203A"/>
  <outline>
    <contour>
      <point x="881.0" y="547.0" type="line"/>
      <point x="881.0" y="547.0"/>
      <point x="135.0" y="202.0"/>
      <point x="54.0" y="155.0" type="qcurve" smooth="yes"/>
      <point x="-1.0" y="123.0"/>
      <point x="-37.0" y="223.0"/>
      <point x="23.0" y="253.0" type="qcurve" smooth="yes"/>
      <point x="179.0" y="332.0"/>
      <point x="749.0" y="585.0"/>
      <point x="749.0" y="585.0" type="qcurve"/>
      <point x="749.0" y="585.0"/>
      <point x="190.0" y="879.0"/>
      <point x="106.0" y="937.0" type="qcurve" smooth="yes"/>
      <point x="63.0" y="966.0"/>
      <point x="134.0" y="1063.0"/>
      <point x="177.0" y="1036.0" type="qcurve" smooth="yes"/>
      <point x="231.0" y="1002.0"/>
      <point x="826.0" y="665.0"/>
      <point x="907.0" y="617.0" type="qcurve"/>
    </contour>
  </outline>
</glyph>
<glyph name="kip" format="2">
  <advance width="1598"/>
  <unicode hex="20AD"/>
  <outline>
    <contour>
      <point x="1381.0" y="754.0" type="line"/>
      <point x="859.0" y="754.0" type="line"/>
      <point x="859.0" y="770.0" type="line"/>
      <point x="843.0" y="770.0" type="line"/>
      <point x="867.0" y="843.0" type="line"/>
      <point x="839.0" y="843.0" type="line"/>
      <point x="839.0" y="847.0" type="line"/>
      <point x="1418.0" y="847.0" type="line"/>
    </contour>
    <contour>
      <point x="-23.0" y="754.0" type="line"/>
      <point x="-8.0" y="846.0" type="line"/>
      <point x="303.0" y="846.0" type="line"/>
      <point x="283.0" y="843.0" type="line"/>
      <point x="160.0" y="843.0" type="line"/>
      <point x="10.0" y="770.0" type="line"/>
      <point x="253.0" y="770.0" type="line"/>
      <point x="243.0" y="754.0" type="line"/>
    </contour>
    <contour>
      <point x="-142.0" y="0.0" type="line"/>
      <point x="-114.0" y="89.0" type="line"/>
      <point x="94.0" y="114.0" type="line"/>
      <point x="250.0" y="858.0" type="line"/>
      <point x="339.0" y="1382.0" type="line"/>
      <point x="111.0" y="1407.0" type="line"/>
      <point x="120.0" y="1500.0" type="line"/>
      <point x="716.0" y="1500.0" type="line"/>
      <point x="690.0" y="1407.0" type="line"/>
      <point x="474.0" y="1382.0" type="line"/>
      <point x="367.0" y="826.0" type="line"/>
      <point x="224.0" y="114.0" type="line"/>
      <point x="455.0" y="89.0" type="line"/>
      <point x="442.0" y="0.0" type="line"/>
    </contour>
    <contour>
      <point x="203.0" y="386.0" type="line"/>
      <point x="246.0" y="533.0" type="line"/>
      <point x="1443.0" y="1420.0" type="line"/>
      <point x="1234.0" y="1410.0" type="line"/>
      <point x="1246.0" y="1500.0" type="line"/>
      <point x="1814.0" y="1500.0" type="line"/>
      <point x="1802.0" y="1422.0" type="line"/>
      <point x="1630.0" y="1414.0" type="line"/>
    </contour>
    <contour>
      <point x="842.0" y="990.0" type="line"/>
      <point x="942.0" y="1070.0" type="line"/>
      <point x="1258.0" y="106.0" type="line"/>
      <point x="1506.0" y="84.0" type="line"/>
      <point x="1496.0" y="0.0" type="line"/>
      <point x="921.0" y="0.0" type="line"/>
      <point x="931.0" y="84.0" type="line"/>
      <point x="1136.0" y="106.0" type="line"/>
    </contour>
  </outline>
</glyph>
<glyph name="f_f_i" format="2">
  <advance width="2242"/>
  <unicode hex="FB03"/>
  <outline>
    <contour>
      <point x="-290.0" y="-423.0" type="line" smooth="yes"/>
      <point x="-267.0" y="-361.0" type="line"/>
      <point x="-121.0" y="-377.0" type="line" smooth="yes"/>
      <point x="13.0" y="-385.0"/>
      <point x="101.0" y="-272.0"/>
      <point x="139.0" y="-37.0" type="qcurve" smooth="yes"/>
      <point x="292.0" y="908.0" type="line"/>
      <point x="289.0" y="942.0" type="line"/>
      <point x="335.0" y="1209.0" type="line" smooth="yes"/>
      <point x="365.0" y="1384.0"/>
      <point x="558.0" y="1536.0"/>
      <point x="657.0" y="1536.0" type="qcurve" smooth="yes"/>
      <point x="741.0" y="1536.0"/>
      <point x="840.0" y="1463.0"/>
      <point x="840.0" y="1436.0" type="qcurve" smooth="yes"/>
      <point x="840.0" y="1411.0"/>
      <point x="819.0" y="1334.0"/>
      <point x="792.0" y="1334.0" type="qcurve" smooth="yes"/>
      <point x="792.0" y="1334.0"/>
      <point x="787.0" y="1342.0"/>
      <point x="770.0" y="1349.0" type="qcurve" smooth="yes"/>
      <point x="760.0" y="1355.0"/>
      <point x="713.0" y="1398.0"/>
      <point x="661.0" y="1398.0" type="qcurve" smooth="yes"/>
      <point x="589.0" y="1398.0"/>
      <point x="502.0" y="1286.0"/>
      <point x="482.0" y="1201.0" type="qcurve" smooth="yes"/>
      <point x="418.0" y="936.0" type="line"/>
      <point x="432.0" y="920.0" type="line"/>
      <point x="283.0" y="82.0" type="line" smooth="yes"/>
      <point x="230.0" y="-225.0"/>
      <point x="107.0" y="-474.0"/>
      <point x="-82.0" y="-474.0" type="qcurve"/>
    </contour>
    <contour>
      <point x="517.0" y="-364.0" type="line" smooth="yes"/>
      <point x="539.0" y="-301.0" type="line"/>
      <point x="694.0" y="-317.0" type="line" smooth="yes"/>
      <point x="828.0" y="-325.0"/>
      <point x="918.0" y="-208.0"/>
      <point x="954.0" y="27.0" type="qcurve" smooth="yes"/>
      <point x="1095.0" y="912.0" type="line"/>
      <point x="1092.0" y="942.0" type="line"/>
      <point x="1151.0" y="1279.0" type="line" smooth="yes"/>
      <point x="1158.0" y="1374.0"/>
      <point x="1329.0" y="1579.0"/>
      <point x="1458.0" y="1582.0" type="qcurve" smooth="yes"/>
      <point x="1579.0" y="1585.0"/>
      <point x="1696.0" y="1505.0"/>
      <point x="1696.0" y="1468.0" type="qcurve" smooth="yes"/>
      <point x="1696.0" y="1431.0"/>
      <point x="1675.0" y="1353.0"/>
      <point x="1648.0" y="1353.0" type="qcurve" smooth="yes"/>
      <point x="1638.0" y="1353.0"/>
      <point x="1635.0" y="1374.0"/>
      <point x="1616.0" y="1381.0" type="qcurve" smooth="yes"/>
      <point x="1602.0" y="1397.0"/>
      <point x="1544.0" y="1444.0"/>
      <point x="1462.0" y="1444.0" type="qcurve" smooth="yes"/>
      <point x="1360.0" y="1444.0"/>
      <point x="1296.0" y="1274.0"/>
      <point x="1289.0" y="1271.0" type="qcurve" smooth="yes"/>
      <point x="1221.0" y="936.0" type="line"/>
      <point x="1235.0" y="920.0" type="line"/>
      <point x="1098.0" y="142.0" type="line" smooth="yes"/>
      <point x="1046.0" y="-165.0"/>
      <point x="922.0" y="-414.0"/>
      <point x="733.0" y="-414.0" type="qcurve"/>
    </contour>
    <contour>
      <point x="35.0" y="879.0" type="line"/>
      <point x="29.0" y="958.0" type="line"/>
      <point x="338.0" y="994.0" type="line"/>
      <point x="1908.0" y="996.0" type="line"/>
      <point x="1880.0" y="912.0" type="line"/>
      <point x="365.0" y="880.0" type="line"/>
      <point x="358.0" y="869.0" type="line"/>
    </contour>
    <contour>
      <point x="1712.0" y="-21.0" type="line"/>
      <point x="1655.0" y="46.0" type="line"/>
      <point x="1781.0" y="527.0" type="line"/>
      <point x="1853.0" y="879.0" type="line"/>
      <point x="1735.0" y="920.0" type="line"/>
      <point x="1763.0" y="950.0" type="line"/>
      <point x="1981.0" y="1042.0" type="line"/>
      <point x="2009.0" y="1008.0" type="line"/>
      <point x="1967.0" y="954.0" type="line"/>
      <point x="1955.0" y="860.0" type="line"/>
      <point x="1792.0" y="121.0" type="line"/>
      <point x="2045.0" y="123.0" type="line"/>
      <point x="2045.0" y="52.0" type="line"/>
    </contour>
  </outline>
</glyph>
<glyph name="Z" format="2">
  <advance width="1471"/>
  <outline>
    <contour>
      <point x="-140" y="0" type="line"/>
      <point x="-160" y="72" type="line"/>
      <point x="672" y="837" type="line"/>
      <point x="1264" y="1382" type="line"/>
      <point x="1254" y="1398" type="line"/>
      <point x="301" y="1398" type="line"/>
      <point x="148" y="1133" type="line"/>
      <point x="60" y="1133" type="line"/>
      <point x="141" y="1500" type="line"/>
      <point x="1489" y="1500" type="line"/>
      <point x="1481" y="1429" type="line"/>
      <point x="743" y="753" type="line"/>
      <point x="41" y="109" type="line"/>
      <point x="51" y="103" type="line"/>
      <point x="1062" y="103" type="line"/>
      <point x="1220" y="397" type="line"/>
      <point x="1309" y="397" type="line"/>
      <point x="1202" y="0" type="line"/>
    </contour>
  </outline>
</glyph>
<glyph name="brevebelowcomb" format="2">
  <advance width="1024"/>
  <outline>
    <contour>
      <point x="642.0" y="-171.0" type="qcurve"/>
      <point x="699.0" y="-198.0" type="line"/>
      <point x="646.0" y="-316.0"/>
      <point x="448.0" y="-488.0"/>
      <point x="286.0" y="-488.0" type="qcurve" smooth="yes"/>
      <point x="145.0" y="-488.0"/>
      <point x="-13.0" y="-338.0"/>
      <point x="-22.0" y="-201.0" type="qcurve"/>
      <point x="42.0" y="-185.0" type="line"/>
      <point x="61.0" y="-284.0"/>
      <point x="187.0" y="-384.0"/>
      <point x="305.0" y="-384.0" type="qcurve" smooth="yes"/>
      <point x="406.0" y="-384.0"/>
      <point x="568.0" y="-287.0"/>
    </contour>
  </outline>
</glyph>
<glyph name="dollar.rvrn" format="2">
  <advance width="1099"/>
  <outline>
    <contour>
      <point x="-191.0" y="284.0" type="qcurve"/>
      <point x="-113.0" y="328.0" type="line"/>
      <point x="-44.0" y="233.0"/>
      <point x="153.0" y="119.0"/>
      <point x="373.0" y="119.0" type="qcurve" smooth="yes"/>
      <point x="597.0" y="119.0"/>
      <point x="847.0" y="272.0"/>
      <point x="863.0" y="410.0" type="qcurve" smooth="yes"/>
      <point x="881.0" y="540.0"/>
      <point x="665.0" y="678.0"/>
      <point x="471.0" y="722.0" type="qcurve" smooth="yes"/>
      <point x="236.0" y="777.0"/>
      <point x="22.0" y="985.0"/>
      <point x="38.0" y="1130.0" type="qcurve" smooth="yes"/>
      <point x="55.0" y="1281.0"/>
      <point x="330.0" y="1479.0"/>
      <point x="620.0" y="1479.0" type="qcurve" smooth="yes"/>
      <point x="790.0" y="1479.0"/>
      <point x="1005.0" y="1408.0"/>
      <point x="1089.0" y="1348.0" type="qcurve"/>
      <point x="1049.0" y="1273.0" type="line"/>
      <point x="970.0" y="1334.0"/>
      <point x="704.0" y="1391.0"/>
      <point x="571.0" y="1391.0" type="qcurve" smooth="yes"/>
      <point x="318.0" y="1391.0"/>
      <point x="131.0" y="1243.0"/>
      <point x="120.0" y="1146.0" type="qcurve" smooth="yes"/>
      <point x="107.0" y="1016.0"/>
      <point x="235.0" y="895.0"/>
      <point x="475.0" y="836.0" type="qcurve" smooth="yes"/>
      <point x="731.0" y="763.0"/>
      <point x="990.0" y="553.0"/>
      <point x="973.0" y="401.0" type="qcurve" smooth="yes"/>
      <point x="955.0" y="226.0"/>
      <point x="589.0" y="22.0"/>
      <point x="348.0" y="22.0" type="qcurve" smooth="yes"/>
      <point x="156.0" y="22.0"/>
      <point x="-130.0" y="163.0"/>
    </contour>
    <contour>
      <point x="277" y="-130" type="line"/>
      <point x="314" y="72" type="line"/>
      <point x="335" y="72" type="line"/>
      <point x="354" y="72" type="line"/>
      <point x="377" y="72" type="line"/>
      <point x="385" y="72" type="line"/>
      <point x="405" y="72" type="line"/>
      <point x="360" y="-138" type="line"/>
    </contour>
    <contour>
      <point x="628" y="1613" type="line"/>
      <point x="714" y="1600" type="line"/>
      <point x="676" y="1409" type="line"/>
      <point x="662" y="1409" type="line"/>
      <point x="641" y="1409" type="line"/>
      <point x="628" y="1409" type="line"/>
      <point x="613" y="1409" type="line"/>
      <point x="587" y="1409" type="line"/>
    </contour>
  </outline>
</glyph>
<glyph name="dotaccentcombstack.case" format="2">
  <advance width="1024"/>
  <outline>
    <contour>
      <point x="523.0" y="1708.0" type="qcurve" smooth="yes"/>
      <point x="523.0" y="1761.0"/>
      <point x="554.0" y="1793.0"/>
      <point x="609.0" y="1793.0" type="qcurve" smooth="yes"/>
      <point x="653.0" y="1793.0"/>
      <point x="695.0" y="1749.0"/>
      <point x="695.0" y="1708.0" type="qcurve" smooth="yes"/>
      <point x="695.0" y="1656.0"/>
      <point x="664.0" y="1622.0"/>
      <point x="609.0" y="1622.0" type="qcurve" smooth="yes"/>
      <point x="567.0" y="1622.0"/>
      <point x="523.0" y="1667.0"/>
    </contour>
  </outline>
</glyph>
<glyph name="gravecomb.case" format="2">
  <advance width="1024"/>
  <outline>
    <contour>
      <point x="415.0" y="1771.0" type="qcurve" smooth="yes"/>
      <point x="850.0" y="1599.0" type="line"/>
      <point x="862.0" y="1644.0" type="line"/>
      <point x="514.0" y="1828.0" type="line" smooth="yes"/>
      <point x="461.0" y="1860.0"/>
      <point x="387.0" y="1918.0"/>
      <point x="348.0" y="1915.0" type="qcurve" smooth="yes"/>
      <point x="318.0" y="1913.0"/>
      <point x="300.0" y="1883.0"/>
      <point x="303.0" y="1862.0" type="qcurve" smooth="yes"/>
      <point x="305.0" y="1836.0"/>
      <point x="361.0" y="1791.0"/>
    </contour>
  </outline>
</glyph>
<glyph name="gravecombstack.case" format="2">
  <advance width="1024"/>
  <outline>
    <contour>
      <point x="371.0" y="1928.0" type="qcurve" smooth="yes"/>
      <point x="378.0" y="1938.0"/>
      <point x="407.0" y="1980.0"/>
      <point x="449.0" y="1971.0" type="qcurve" smooth="yes"/>
      <point x="481.0" y="1964.0"/>
      <point x="556.0" y="1891.0"/>
      <point x="575.0" y="1900.0" type="qcurve" smooth="yes"/>
      <point x="819.0" y="1708.0" type="line"/>
      <point x="813.0" y="1656.0" type="line"/>
      <point x="465.0" y="1806.0" type="line" smooth="yes"/>
      <point x="413.0" y="1833.0"/>
      <point x="364.0" y="1886.0"/>
    </contour>
  </outline>
</glyph>
<glyph name="horizontalbarlc" format="2">
  <advance width="908"/>
  <outline>
    <contour>
      <point x="365.0" y="697.0" type="line"/>
      <point x="21.0" y="697.0" type="line"/>
      <point x="43.0" y="782.0" type="line"/>
      <point x="377.0" y="782.0" type="line"/>
      <point x="779.0" y="782.0" type="line"/>
      <point x="760.0" y="697.0" type="line"/>
    </contour>
  </outline>
</glyph>
<glyph name="horncomb" format="2">
  <advance width="1024"/>
  <outline>
    <contour>
      <point x="979.0" y="1001.0" type="line"/>
      <point x="1068.0" y="1001.0"/>
      <point x="1104.0" y="1001.0"/>
      <point x="1161.0" y="1001.0" type="qcurve" smooth="yes"/>
      <point x="1243.0" y="1001.0"/>
      <point x="1332.0" y="1078.0"/>
      <point x="1347.0" y="1101.0" type="qcurve" smooth="yes"/>
      <point x="1367.0" y="1156.0"/>
      <point x="1366.0" y="1206.0"/>
      <point x="1367.0" y="1307.0" type="qcurve"/>
      <point x="1479.0" y="1307.0" type="line"/>
      <point x="1475.0" y="1302.0"/>
      <point x="1495.0" y="1291.0"/>
      <point x="1511.0" y="1257.0" type="qcurve" smooth="yes"/>
      <point x="1547.0" y="1057.0"/>
      <point x="1365.0" y="926.0"/>
      <point x="1211.0" y="926.0" type="qcurve" smooth="yes"/>
      <point x="1127.0" y="926.0"/>
      <point x="999.0" y="949.0"/>
      <point x="964.0" y="960.0" type="qcurve"/>
    </contour>
  </outline>
</glyph>
<glyph name="six.tab" format="2">
  <advance width="1500"/>
  <outline>
    <contour>
      <point x="75.0" y="440.0" type="qcurve" smooth="yes"/>
      <point x="71.0" y="837.0"/>
      <point x="747.0" y="1475.0"/>
      <point x="1248.0" y="1578.0" type="qcurve"/>
      <point x="1278.0" y="1505.0" type="line"/>
      <point x="836.0" y="1404.0"/>
      <point x="198.0" y="771.0"/>
      <point x="203.0" y="426.0" type="qcurve" smooth="yes"/>
      <point x="205.0" y="245.0"/>
      <point x="442.0" y="78.0"/>
      <point x="624.0" y="78.0" type="qcurve" smooth="yes"/>
      <point x="822.0" y="78.0"/>
      <point x="1129.0" y="372.0"/>
      <point x="1132.0" y="535.0" type="qcurve" smooth="yes"/>
      <point x="1135.0" y="683.0"/>
      <point x="916.0" y="807.0"/>
      <point x="775.0" y="800.0" type="qcurve" smooth="yes"/>
      <point x="701.0" y="797.0"/>
      <point x="582.0" y="752.0"/>
      <point x="534.0" y="713.0" type="qcurve"/>
      <point x="505.0" y="785.0" type="line"/>
      <point x="549.0" y="826.0"/>
      <point x="708.0" y="893.0"/>
      <point x="812.0" y="900.0" type="qcurve" smooth="yes"/>
      <point x="997.0" y="914.0"/>
      <point x="1241.0" y="725.0"/>
      <point x="1242.0" y="556.0" type="qcurve" smooth="yes"/>
      <point x="1244.0" y="330.0"/>
      <point x="876.0" y="-21.0"/>
      <point x="602.0" y="-21.0" type="qcurve" smooth="yes"/>
      <point x="360.0" y="-21.0"/>
      <point x="78.0" y="193.0"/>
    </contour>
  </outline>
</glyph>
<glyph name="three.lc" format="2">
  <advance width="1205"/>
  <outline>
    <contour>
      <point x="-102.0" y="-291.0" type="line"/>
      <point x="-54.0" y="-296.0"/>
      <point x="26.0" y="-299.0"/>
      <point x="77.0" y="-299.0" type="qcurve" smooth="yes"/>
      <point x="423.0" y="-299.0"/>
      <point x="892.0" y="-97.0"/>
      <point x="895.0" y="88.0" type="qcurve" smooth="yes"/>
      <point x="898.0" y="216.0"/>
      <point x="653.0" y="376.0"/>
      <point x="413.0" y="384.0" type="qcurve" smooth="yes"/>
      <point x="279.0" y="391.0" type="line"/>
      <point x="291.0" y="463.0" type="line"/>
      <point x="394.0" y="466.0" type="line" smooth="yes"/>
      <point x="630.0" y="472.0"/>
      <point x="960.0" y="645.0"/>
      <point x="960.0" y="768.0" type="qcurve" smooth="yes"/>
      <point x="959.0" y="852.0"/>
      <point x="820.0" y="964.0"/>
      <point x="673.0" y="964.0" type="qcurve" smooth="yes"/>
      <point x="536.0" y="964.0"/>
      <point x="258.0" y="855.0"/>
      <point x="153.0" y="783.0" type="qcurve"/>
      <point x="104.0" y="868.0" type="line"/>
      <point x="215.0" y="959.0"/>
      <point x="506.0" y="1062.0"/>
      <point x="688.0" y="1062.0" type="qcurve" smooth="yes"/>
      <point x="894.0" y="1062.0"/>
      <point x="1119.0" y="913.0"/>
      <point x="1116.0" y="784.0" type="qcurve" smooth="yes"/>
      <point x="1114.0" y="632.0"/>
      <point x="833.0" y="462.0"/>
      <point x="631.0" y="435.0" type="qcurve"/>
      <point x="629.0" y="430.0" type="line"/>
      <point x="818.0" y="416.0"/>
      <point x="1058.0" y="245.0"/>
      <point x="1053.0" y="98.0" type="qcurve" smooth="yes"/>
      <point x="1044.0" y="-133.0"/>
      <point x="501.0" y="-387.0"/>
      <point x="75.0" y="-387.0" type="qcurve" smooth="yes"/>
      <point x="16.0" y="-387.0"/>
      <point x="-85.0" y="-380.0"/>
      <point x="-129.0" y="-373.0" type="qcurve"/>
    </contour>
  </outline>
</glyph>
<glyph name="three.tab" format="2">
  <advance width="1500"/>
  <outline>
    <contour>
      <point x="10.0" y="241.0" type="qcurve" smooth="yes"/>
      <point x="13.0" y="317.0"/>
      <point x="95.0" y="417.0"/>
      <point x="124.0" y="407.0" type="qcurve"/>
      <point x="155.0" y="407.0" type="line"/>
      <point x="140.01138287471505" y="397.57638856674043"/>
      <point x="125.0" y="361.55223880597015"/>
      <point x="125.0" y="326.0" type="qcurve" smooth="yes"/>
      <point x="122.0" y="205.0"/>
      <point x="262.0" y="77.0"/>
      <point x="449.0" y="77.0" type="qcurve" smooth="yes"/>
      <point x="685.0" y="77.0"/>
      <point x="998.0" y="325.0"/>
      <point x="1004.0" y="494.0" type="qcurve" smooth="yes"/>
      <point x="1009.0" y="633.0"/>
      <point x="747.0" y="776.0"/>
      <point x="510.0" y="773.0" type="qcurve" smooth="yes"/>
      <point x="410.0" y="771.0" type="line"/>
      <point x="446.0" y="873.0" type="line"/>
      <point x="549.0" y="880.0" type="line" smooth="yes"/>
      <point x="767.0" y="893.0"/>
      <point x="1091.0" y="1083.0"/>
      <point x="1092.0" y="1226.0" type="qcurve" smooth="yes"/>
      <point x="1094.0" y="1346.0"/>
      <point x="940.0" y="1444.0"/>
      <point x="806.0" y="1444.0" type="qcurve" smooth="yes"/>
      <point x="709.0" y="1444.0"/>
      <point x="427.0" y="1328.0"/>
      <point x="332.0" y="1225.0" type="qcurve"/>
      <point x="267.0" y="1308.0" type="line"/>
      <point x="363.0" y="1419.0"/>
      <point x="603.0" y="1532.0"/>
      <point x="802.0" y="1532.0" type="qcurve" smooth="yes"/>
      <point x="995.0" y="1532.0"/>
      <point x="1202.0" y="1379.0"/>
      <point x="1197.0" y="1238.0" type="qcurve" smooth="yes"/>
      <point x="1191.0" y="1059.0"/>
      <point x="928.0" y="859.0"/>
      <point x="732.0" y="826.0" type="qcurve"/>
      <point x="731.0" y="819.0" type="line"/>
      <point x="943.0" y="786.0"/>
      <point x="1128.0" y="533.0"/>
      <point x="1123.0" y="395.0" type="qcurve" smooth="yes"/>
      <point x="1116.0" y="227.0"/>
      <point x="792.0" y="-21.0"/>
      <point x="447.0" y="-21.0" type="qcurve" smooth="yes"/>
      <point x="200.0" y="-21.0"/>
      <point x="7.0" y="146.0"/>
    </contour>
  </outline>
</glyph>
<glyph name="zero.lc" format="2">
  <advance width="1553"/>
  <outline>
    <contour>
      <point x="71.0" y="571.0" type="qcurve" smooth="yes"/>
      <point x="108.0" y="795.0"/>
      <point x="527.0" y="1076.0"/>
      <point x="852.0" y="1064.0" type="qcurve" smooth="yes"/>
      <point x="1178.0" y="1053.0"/>
      <point x="1505.0" y="686.0"/>
      <point x="1471.0" y="479.0" type="qcurve" smooth="yes"/>
      <point x="1434.0" y="255.0"/>
      <point x="1008.0" y="-53.0"/>
      <point x="683.0" y="-38.0" type="qcurve" smooth="yes"/>
      <point x="375.0" y="-23.0"/>
      <point x="31.0" y="329.0"/>
    </contour>
    <contour>
      <point x="215.0" y="557.0" type="qcurve" smooth="yes"/>
      <point x="184.0" y="360.0"/>
      <point x="418.0" y="85.0"/>
      <point x="684.0" y="70.0" type="qcurve" smooth="yes"/>
      <point x="954.0" y="54.0"/>
      <point x="1305.0" y="310.0"/>
      <point x="1330.0" y="503.0" type="qcurve" smooth="yes"/>
      <point x="1355.0" y="694.0"/>
      <point x="1088.0" y="954.0"/>
      <point x="840.0" y="963.0" type="qcurve" smooth="yes"/>
      <point x="583.0" y="974.0"/>
      <point x="245.0" y="751.0"/>
    </contour>
  </outline>
</glyph>
